<svg width="600" height="600" viewBox="0 0 600 600" fill="none" xmlns="http://www.w3.org/2000/svg">
<path fill-rule="evenodd" clip-rule="evenodd" d="M459.324 398.965C450.531 413.042 439.934 425.877 427.858 437.145L377.355 386.642C371.496 380.783 361.996 380.783 356.137 386.642C350.278 392.501 350.278 402.001 356.137 407.86L404.206 455.928C392.384 463.867 379.615 470.505 366.104 475.637L336.909 446.441C331.05 440.582 321.55 440.582 315.691 446.441C309.832 452.3 309.832 461.8 315.691 467.659L332.892 484.859C321.924 486.842 310.626 487.877 299.087 487.877C194.821 487.877 110.297 403.353 110.297 299.087C110.297 194.821 194.821 110.297 299.087 110.297C351.835 110.297 399.531 131.929 433.786 166.807H285.021L189.083 262.744L222.509 284.962C238.635 295.681 260.082 293.542 273.774 279.85L306.991 246.633L459.324 398.965ZM566.082 299.087C566.082 446.545 446.545 566.082 299.087 566.082C151.63 566.082 32.0918 446.545 32.0918 299.087C32.0918 151.63 151.63 32.0918 299.087 32.0918C446.545 32.0918 566.082 151.63 566.082 299.087Z" fill="white"/>
</svg>
