<svg width="32" height="32" viewBox="0 0 32 32" fill="none" xmlns="http://www.w3.org/2000/svg">
<circle cx="16" cy="16" r="10" fill="#57D68D"/>
<mask id="path-2-inside-1_16389_564" fill="white">
<path d="M32 16C32 18.1012 31.5861 20.1817 30.7821 22.1229C29.978 24.0641 28.7994 25.828 27.3137 27.3137C25.828 28.7994 24.0641 29.978 22.1229 30.7821C20.1817 31.5861 18.1011 32 16 32V30.0796C17.849 30.0796 19.6798 29.7155 21.388 29.0079C23.0963 28.3003 24.6484 27.2632 25.9558 25.9558C27.2632 24.6484 28.3003 23.0963 29.0079 21.388C29.7155 19.6798 30.0796 17.849 30.0796 16H32Z"/>
</mask>
<path d="M32 16C32 18.1012 31.5861 20.1817 30.7821 22.1229C29.978 24.0641 28.7994 25.828 27.3137 27.3137C25.828 28.7994 24.0641 29.978 22.1229 30.7821C20.1817 31.5861 18.1011 32 16 32V30.0796C17.849 30.0796 19.6798 29.7155 21.388 29.0079C23.0963 28.3003 24.6484 27.2632 25.9558 25.9558C27.2632 24.6484 28.3003 23.0963 29.0079 21.388C29.7155 19.6798 30.0796 17.849 30.0796 16H32Z" stroke="#57D68D" stroke-width="2" mask="url(#path-2-inside-1_16389_564)"/>
<mask id="path-3-inside-2_16389_564" fill="white">
<path d="M0 16C0 13.8988 0.413853 11.8183 1.21793 9.87707C2.022 7.93586 3.20055 6.17203 4.68629 4.68629C6.17203 3.20055 7.93586 2.022 9.87707 1.21793C11.8183 0.413853 13.8989 0 16 0V1.92037C14.151 1.92037 12.3202 2.28455 10.612 2.99212C8.90374 3.69968 7.35161 4.73678 6.0442 6.0442C4.73678 7.35161 3.69968 8.90374 2.99212 10.612C2.28455 12.3202 1.92037 14.151 1.92037 16H0Z"/>
</mask>
<path d="M0 16C0 13.8988 0.413853 11.8183 1.21793 9.87707C2.022 7.93586 3.20055 6.17203 4.68629 4.68629C6.17203 3.20055 7.93586 2.022 9.87707 1.21793C11.8183 0.413853 13.8989 0 16 0V1.92037C14.151 1.92037 12.3202 2.28455 10.612 2.99212C8.90374 3.69968 7.35161 4.73678 6.0442 6.0442C4.73678 7.35161 3.69968 8.90374 2.99212 10.612C2.28455 12.3202 1.92037 14.151 1.92037 16H0Z" stroke="#57D68D" stroke-width="2" mask="url(#path-3-inside-2_16389_564)"/>
</svg>
