<svg width="270" height="160" viewBox="0 0 270 160" fill="none" xmlns="http://www.w3.org/2000/svg">
<g clip-path="url(#clip0_16146_19253)">
<path d="M91.7824 76.25H72.3673V74.1083C77.3633 73.7933 77.9325 72.8484 77.9325 68.376V45.5098C77.9325 42.2343 77.6795 41.7933 75.0866 41.6043L71.8613 41.3524V39.5256C76.0353 38.8957 80.7151 37.7618 86.2804 36.25V68.376C86.2804 72.7224 86.7231 73.7933 91.7824 74.1083V76.25Z" fill="#768088"/>
<path d="M128.905 65.2894H123.213V69.2579C123.213 73.0374 123.656 73.6673 128.336 74.1083V76.25H109.49V74.1083C114.866 73.6673 115.182 72.7854 115.182 68.9429V65.2894H99.1184V62.7067C105.948 53.0689 112.652 43.998 118.66 36.628H123.213V61.6988H128.905V65.2894ZM115.182 61.6988V45.1949H115.055C112.02 49.3524 107.972 55.1476 103.862 61.6988H115.182Z" fill="#768088"/>
<path d="M164.004 62.3287H151.103V76.25H146.36V62.3287H133.395V58.2343H146.36V45.6358H151.103V58.2343H164.004V62.3287Z" fill="#768088"/>
<path d="M81.2312 90.2V90.7669C80.2537 90.9428 80.0778 91.1188 79.5695 92.194C79.0808 93.2105 78.4553 94.8526 77.2432 97.7458C75.9335 100.893 75.5229 102.086 75.1906 103.161C75.0733 103.591 74.8192 103.689 74.5064 103.689C73.959 103.689 73.2357 103.161 73.2357 102.555C73.2357 102.242 73.3726 102.047 73.7635 101.812C74.4673 101.401 74.8974 100.991 75.3079 100.287C75.562 99.818 75.6793 99.5248 75.7575 99.2706C75.8553 98.9774 75.8162 98.7037 75.6989 98.3714C74.7801 95.7519 73.7635 93.1323 73.3139 92.0767C72.9425 91.1579 72.7274 90.9233 71.75 90.7669V90.2H76.2853V90.7669C75.4056 90.9428 75.2883 91.0797 75.5034 91.7443L77.0868 96.2797C77.5756 95.0872 78.2989 93.015 78.6703 91.8616C78.9049 91.1774 78.7289 90.9428 77.7124 90.7669V90.2H81.2312Z" fill="#768088"/>
<path d="M88.6403 96.5143L88.9727 96.9834C87.7802 98.6451 86.314 99.0361 85.5712 99.0361C83.0494 99.0361 81.6223 97.1007 81.6223 94.8526C81.6223 93.4255 82.1892 92.194 83.0103 91.3729C83.8509 90.4932 84.9261 89.9654 85.9426 89.9654H85.9622C87.702 89.9654 89.0509 91.4707 89.0509 93.0346C89.0509 93.4255 88.9336 93.6601 88.5231 93.7188C88.1712 93.7774 85.7667 93.9534 83.714 94.0316C83.7727 96.3383 85.0629 97.4135 86.4509 97.4135C87.2133 97.4135 87.9561 97.1398 88.6403 96.5143ZM85.5321 90.7278H85.5125C84.7306 90.7278 83.9877 91.6075 83.8118 93.1519C84.711 93.1519 85.5712 93.1323 86.4704 93.0932C86.7832 93.0932 86.9005 93.0346 86.92 92.7218C86.92 91.7053 86.3922 90.7278 85.5321 90.7278Z" fill="#768088"/>
<path d="M98.6387 97.9609L96.6642 99.0361C96.2146 99.0361 95.8236 98.8601 95.5695 98.6451C95.3154 98.391 95.1785 98.1368 95.0808 97.8631C94.3184 98.3714 93.3996 99.0361 92.9499 99.0361C91.386 99.0361 90.4086 97.7849 90.4086 96.5729C90.4086 95.5759 90.8973 95.0481 91.9334 94.6767C93.0868 94.2661 94.5725 93.7774 95.0221 93.3864V92.8977C95.0221 91.6075 94.4748 90.8842 93.6537 90.8842C93.3605 90.8842 93.1063 91.0015 92.9304 91.2361C92.6958 91.5098 92.5199 91.9594 92.3635 92.5654C92.2462 93.015 91.9921 93.1519 91.6206 93.1519C91.171 93.1519 90.5454 92.7218 90.5454 92.2135C90.5454 91.9007 90.78 91.6466 91.2101 91.3534C91.8748 90.8647 93.2236 90.1804 94.3379 89.9654C95.0612 89.9654 95.6477 90.1413 96.1364 90.5128C96.9184 91.1188 97.1138 91.9594 97.1138 93.015V96.397C97.1138 97.2962 97.4266 97.5504 97.759 97.5504C97.9935 97.5504 98.2281 97.4722 98.4236 97.3744L98.6387 97.9609ZM95.0221 97.218V94.1098C94.6311 94.3248 94.1033 94.5985 93.6928 94.8135C93.0281 95.1263 92.6763 95.4977 92.6763 96.1819C92.6763 97.2376 93.4191 97.6676 93.9274 97.6676C94.2793 97.6676 94.6702 97.4917 95.0221 97.218Z" fill="#768088"/>
<path d="M102.787 92.0376H102.826C103.491 90.8842 104.292 89.9654 105.094 89.9654C105.836 89.9654 106.345 90.4932 106.345 91.0992C106.345 91.6662 105.973 92.1744 105.504 92.3504C105.25 92.4481 105.054 92.409 104.937 92.2917C104.605 92.018 104.37 91.8812 104.058 91.8812C103.627 91.8812 103.158 92.2526 102.787 93.1519V96.7684C102.787 98 102.885 98.0977 104.39 98.215V98.8015H99.3462V98.215C100.461 98.0977 100.636 98 100.636 96.7684V92.5654C100.636 91.4707 100.519 91.3925 99.5222 91.197V90.6887C100.617 90.5323 101.673 90.2977 102.787 89.9263V92.0376Z" fill="#768088"/>
<path d="M113.101 92.4872L112.534 92.6436C112.065 91.4511 111.42 90.6692 110.481 90.6692C109.875 90.6692 109.387 91.1579 109.387 91.8421C109.387 92.5263 109.953 92.9955 110.911 93.406C112.456 94.0707 113.492 94.7549 113.492 96.221C113.492 98.0977 111.713 99.0361 110.09 99.0361C109.074 99.0361 108.077 98.6646 107.705 98.3714C107.569 98.0782 107.393 96.7098 107.393 95.8496L107.94 95.791C108.35 97.0421 109.25 98.3128 110.423 98.3128C111.087 98.3128 111.615 97.824 111.615 97.1398C111.615 96.4752 111.224 96.006 110.11 95.4586C109.113 94.9895 107.627 94.2661 107.627 92.6436C107.627 91.1774 108.839 89.9654 110.814 89.9654C111.674 89.9459 112.202 90.1218 112.632 90.2977C112.827 90.7474 113.042 92.0571 113.101 92.4872Z" fill="#768088"/>
<path d="M123.846 89.9654H123.866C126.466 89.9654 128.225 91.9789 128.225 94.3443C128.225 97.4917 125.938 99.0361 123.787 99.0361C120.855 99.0361 119.311 96.8466 119.311 94.6962C119.311 91.5098 121.813 89.9654 123.846 89.9654ZM123.592 90.6692H123.572C122.634 90.6692 121.754 91.7834 121.754 94.012C121.754 96.4361 122.634 98.3128 124.002 98.3128C124.921 98.3128 125.781 97.6872 125.781 94.8722C125.781 92.3113 124.999 90.6692 123.592 90.6692Z" fill="#768088"/>
<path d="M129.863 90.2H130.703V89.7699C130.703 89.2812 130.782 88.7925 130.938 88.3429C131.055 87.9323 131.446 86.9744 132.541 86.0556C133.245 85.4496 133.929 85.1173 134.809 85C135.532 85.0391 136.06 85.2737 136.373 85.606C136.627 85.8601 136.646 86.1534 136.529 86.4075C136.451 86.603 136.275 86.818 136.001 87.0331C135.767 87.209 135.591 87.1895 135.395 87.0135C134.965 86.5639 134.359 86.1338 133.773 86.1338C133.362 86.1338 133.147 86.3489 133.01 86.6812C132.854 87.0331 132.776 87.815 132.834 89.4767L132.854 90.2H135.122C135.2 90.3955 135.122 90.9428 134.867 91.0797H132.854V96.6707C132.854 97.9804 132.991 98.0782 134.476 98.215V98.8015H129.413V98.215C130.606 98.0782 130.703 97.9804 130.703 96.7293V91.0797H129.394L129.296 90.8451L129.863 90.2Z" fill="#768088"/>
<path d="M143.606 91.2361L145.131 90.2977C145.503 90.0827 145.874 89.9654 146.167 89.9654C148.415 89.9654 149.667 91.8225 149.667 93.7188C149.667 96.612 147.399 98.4887 144.877 99.0361C144.349 99.0361 143.9 98.8797 143.606 98.7624V101.265C143.606 102.516 143.724 102.633 145.229 102.789V103.376H140.088V102.789C141.339 102.672 141.456 102.535 141.456 101.343V92.5654C141.456 91.412 141.319 91.3338 140.264 91.197V90.6496C141.241 90.4737 142.453 90.1413 143.606 89.7699V91.2361ZM143.606 91.9203V97.2962C143.997 97.6872 144.74 98.0586 145.288 98.0586C146.558 98.0586 147.438 96.7098 147.438 94.618C147.438 92.3113 146.226 91.3338 145.112 91.3338C144.564 91.3338 144.017 91.6075 143.606 91.9203Z" fill="#768088"/>
<path d="M154.306 92.0376H154.346C155.01 90.8842 155.812 89.9654 156.613 89.9654C157.356 89.9654 157.864 90.4932 157.864 91.0992C157.864 91.6662 157.493 92.1744 157.024 92.3504C156.77 92.4481 156.574 92.409 156.457 92.2917C156.124 92.018 155.89 91.8812 155.577 91.8812C155.147 91.8812 154.678 92.2526 154.306 93.1519V96.7684C154.306 98 154.404 98.0977 155.909 98.215V98.8015H150.866V98.215C151.98 98.0977 152.156 98 152.156 96.7684V92.5654C152.156 91.4707 152.039 91.3925 151.042 91.197V90.6887C152.136 90.5323 153.192 90.2977 154.306 89.9263V92.0376Z" fill="#768088"/>
<path d="M163.1 89.9654H163.12C165.72 89.9654 167.479 91.9789 167.479 94.3443C167.479 97.4917 165.192 99.0361 163.042 99.0361C160.109 99.0361 158.565 96.8466 158.565 94.6962C158.565 91.5098 161.067 89.9654 163.1 89.9654ZM162.846 90.6692H162.826C161.888 90.6692 161.008 91.7834 161.008 94.012C161.008 96.4361 161.888 98.3128 163.257 98.3128C164.175 98.3128 165.036 97.6872 165.036 94.8722C165.036 92.3113 164.254 90.6692 162.846 90.6692Z" fill="#768088"/>
<path d="M177.522 90.2V90.7669C176.525 90.9428 176.31 91.1383 175.861 92.1549C175.176 93.6992 174.179 96.0646 173.045 99.0165H172.361C171.423 96.612 170.543 94.3639 169.605 92.1158C169.214 91.1579 168.999 90.9624 168.021 90.7669V90.2H172.537V90.7669C171.579 90.9428 171.501 91.0992 171.775 91.8225C172.264 93.191 173.006 95.1654 173.397 96.1819C173.886 95.0286 174.512 93.2496 174.942 91.9203C175.196 91.1774 175.098 90.9428 174.023 90.7669V90.2H177.522Z" fill="#768088"/>
<path d="M184.95 96.5143L185.283 96.9834C184.09 98.6451 182.624 99.0361 181.881 99.0361C179.359 99.0361 177.932 97.1007 177.932 94.8526C177.932 93.4255 178.499 92.194 179.32 91.3729C180.161 90.4932 181.236 89.9654 182.253 89.9654H182.272C184.012 89.9654 185.361 91.4707 185.361 93.0346C185.361 93.4255 185.244 93.6601 184.833 93.7188C184.481 93.7774 182.077 93.9534 180.024 94.0316C180.083 96.3383 181.373 97.4135 182.761 97.4135C183.523 97.4135 184.266 97.1398 184.95 96.5143ZM181.842 90.7278H181.823C181.041 90.7278 180.298 91.6075 180.122 93.1519C181.021 93.1519 181.881 93.1323 182.781 93.0932C183.093 93.0932 183.211 93.0346 183.23 92.7218C183.23 91.7053 182.702 90.7278 181.842 90.7278Z" fill="#768088"/>
<path d="M196.439 98.8015H192.06V98.215C192.998 98.0977 193.116 98 193.116 96.612V93.3278C193.116 91.9398 192.51 91.3534 191.61 91.3534C191.004 91.3534 190.438 91.6662 189.91 92.0962V96.7684C189.91 98.0195 190.027 98.0977 190.946 98.215V98.8015H186.41V98.215C187.662 98.0586 187.759 98 187.759 96.7098V92.6631C187.759 91.4511 187.662 91.3925 186.665 91.197V90.6692C187.701 90.5323 188.854 90.2586 189.91 89.9068V91.3925C190.301 91.1188 190.692 90.8256 191.161 90.5323C191.728 90.1609 192.158 89.9654 192.725 89.9654C194.289 89.9654 195.247 91.0992 195.247 93.0346V96.7489C195.247 98.0195 195.364 98.0782 196.439 98.215V98.8015Z" fill="#768088"/>
<path d="M79.4913 120.638L79.8237 121.108C78.6312 122.769 77.165 123.16 76.4222 123.16C73.9004 123.16 72.4733 121.225 72.4733 118.977C72.4733 117.55 73.0402 116.318 73.8613 115.497C74.7019 114.617 75.7771 114.09 76.7936 114.09H76.8131C78.553 114.09 79.9019 115.595 79.9019 117.159C79.9019 117.55 79.7846 117.784 79.374 117.843C79.0222 117.902 76.6177 118.077 74.565 118.156C74.6237 120.462 75.9139 121.538 77.3019 121.538C78.0643 121.538 78.8071 121.264 79.4913 120.638ZM76.3831 114.852H76.3635C75.5816 114.852 74.8387 115.732 74.6628 117.276C75.562 117.276 76.4222 117.256 77.3214 117.217C77.6342 117.217 77.7515 117.159 77.771 116.846C77.771 115.829 77.2432 114.852 76.3831 114.852Z" fill="#768088"/>
<path d="M96.395 122.926H91.7814V122.339C92.5439 122.222 92.6611 122.026 92.3093 121.479L91.1559 119.563C90.7649 120.15 90.3739 120.814 90.0611 121.362C89.7093 121.968 89.807 122.163 90.6672 122.339V122.926H86.992V122.339C88.1063 122.144 88.4386 121.948 89.1424 121.088C89.6506 120.482 90.1589 119.759 90.7454 118.938L89.0251 116.162C88.4581 115.243 88.2431 115.047 87.1875 114.891V114.324H91.5469V114.891C90.8236 115.028 90.7258 115.204 91.0386 115.693L92.0356 117.315C92.4461 116.729 92.798 116.162 93.0717 115.693C93.3649 115.165 93.2476 115.028 92.4657 114.891V114.324H96.0431V114.891C94.9093 115.047 94.6942 115.145 94.01 115.888C93.5799 116.357 93.1303 117.022 92.4657 117.921L94.3619 120.912C95.0266 121.948 95.4175 122.202 96.395 122.339V122.926Z" fill="#768088"/>
<path d="M106.688 115.36L108.213 114.422C108.584 114.207 108.956 114.09 109.249 114.09C111.497 114.09 112.748 115.947 112.748 117.843C112.748 120.736 110.481 122.613 107.959 123.16C107.431 123.16 106.981 123.004 106.688 122.886V125.389C106.688 126.64 106.805 126.757 108.311 126.914V127.5H103.169V126.914C104.421 126.796 104.538 126.659 104.538 125.467V116.689C104.538 115.536 104.401 115.458 103.345 115.321V114.774C104.323 114.598 105.535 114.265 106.688 113.894V115.36ZM106.688 116.044V121.42C107.079 121.811 107.822 122.183 108.369 122.183C109.64 122.183 110.52 120.834 110.52 118.742C110.52 116.435 109.308 115.458 108.193 115.458C107.646 115.458 107.099 115.732 106.688 116.044Z" fill="#768088"/>
<path d="M127.876 120.638L128.209 121.108C127.016 122.769 125.55 123.16 124.807 123.16C122.285 123.16 120.858 121.225 120.858 118.977C120.858 117.55 121.425 116.318 122.246 115.497C123.087 114.617 124.162 114.09 125.178 114.09H125.198C126.938 114.09 128.287 115.595 128.287 117.159C128.287 117.55 128.169 117.784 127.759 117.843C127.407 117.902 125.003 118.077 122.95 118.156C123.009 120.462 124.299 121.538 125.687 121.538C126.449 121.538 127.192 121.264 127.876 120.638ZM124.768 114.852H124.748C123.966 114.852 123.224 115.732 123.048 117.276C123.947 117.276 124.807 117.256 125.706 117.217C126.019 117.217 126.136 117.159 126.156 116.846C126.156 115.829 125.628 114.852 124.768 114.852Z" fill="#768088"/>
<path d="M139.287 116.162H139.326C139.99 115.008 140.792 114.09 141.593 114.09C142.336 114.09 142.845 114.617 142.845 115.223C142.845 115.79 142.473 116.299 142.004 116.474C141.75 116.572 141.554 116.533 141.437 116.416C141.105 116.142 140.87 116.005 140.557 116.005C140.127 116.005 139.658 116.377 139.287 117.276V120.892C139.287 122.124 139.384 122.222 140.89 122.339V122.926H135.846V122.339C136.96 122.222 137.136 122.124 137.136 120.892V116.689C137.136 115.595 137.019 115.517 136.022 115.321V114.813C137.117 114.656 138.172 114.422 139.287 114.05V116.162Z" fill="#768088"/>
<path d="M155.988 122.202L154.483 122.926C154.15 123.082 153.838 123.16 153.681 123.16C152.274 123.16 151.472 122.437 151.472 120.736V115.204H150.202L150.104 114.969L150.651 114.324H151.472V112.897L153.349 111.45L153.603 111.548V114.324H155.636C155.851 114.52 155.812 115.047 155.519 115.204H153.603V120.091C153.603 121.635 154.307 121.85 154.737 121.85C155.128 121.85 155.48 121.733 155.793 121.596L155.988 122.202Z" fill="#768088"/>
<path d="M165.59 112.682C164.945 112.682 164.358 112.115 164.358 111.45C164.358 110.747 164.945 110.199 165.609 110.199C166.313 110.199 166.861 110.747 166.861 111.45C166.861 112.115 166.313 112.682 165.59 112.682ZM168.131 122.926H163.381V122.339C164.554 122.202 164.671 122.124 164.671 120.756V116.826C164.671 115.575 164.554 115.497 163.537 115.341V114.793C164.652 114.656 165.824 114.402 166.821 114.07V120.756C166.821 122.085 166.919 122.202 168.131 122.339V122.926Z" fill="#768088"/>
<path d="M181.506 116.611L180.939 116.768C180.47 115.575 179.825 114.793 178.886 114.793C178.28 114.793 177.791 115.282 177.791 115.966C177.791 116.65 178.358 117.12 179.316 117.53C180.861 118.195 181.897 118.879 181.897 120.345C181.897 122.222 180.118 123.16 178.495 123.16C177.479 123.16 176.482 122.789 176.11 122.495C175.973 122.202 175.797 120.834 175.797 119.974L176.345 119.915C176.755 121.166 177.655 122.437 178.828 122.437C179.492 122.437 180.02 121.948 180.02 121.264C180.02 120.599 179.629 120.13 178.515 119.583C177.518 119.114 176.032 118.39 176.032 116.768C176.032 115.302 177.244 114.09 179.219 114.09C180.079 114.07 180.606 114.246 181.037 114.422C181.232 114.871 181.447 116.181 181.506 116.611Z" fill="#768088"/>
<path d="M196.847 120.638L197.179 121.108C195.987 122.769 194.521 123.16 193.778 123.16C191.256 123.16 189.829 121.225 189.829 118.977C189.829 117.55 190.396 116.318 191.217 115.497C192.057 114.617 193.133 114.09 194.149 114.09H194.169C195.909 114.09 197.257 115.595 197.257 117.159C197.257 117.55 197.14 117.784 196.73 117.843C196.378 117.902 193.973 118.077 191.921 118.156C191.979 120.462 193.27 121.538 194.657 121.538C195.42 121.538 196.163 121.264 196.847 120.638ZM193.739 114.852H193.719C192.937 114.852 192.194 115.732 192.018 117.276C192.918 117.276 193.778 117.256 194.677 117.217C194.99 117.217 195.107 117.159 195.127 116.846C195.127 115.829 194.599 114.852 193.739 114.852Z" fill="#768088"/>
</g>
<defs>
<clipPath id="clip0_16146_19253">
<rect width="127.5" height="100" fill="white" transform="translate(71.75 30)"/>
</clipPath>
</defs>
</svg>
