<svg width="270" height="160" viewBox="0 0 270 160" fill="none" xmlns="http://www.w3.org/2000/svg">
<path d="M49.3142 51.8541V52.087C54.5908 53.1932 57.4536 57.0943 57.3975 61.1699C57.3414 71.0681 45.4971 74.9108 42.1852 74.9108C39.4346 74.9108 36.9647 73.8628 36.0665 72.9312C35.2245 72.1743 35 71.5338 35 71.0098C35 69.9618 35.7859 69.0884 36.5156 68.5644C37.1892 68.0986 37.6944 68.0986 38.3119 68.6226C39.6591 69.9036 42.4658 72.5819 45.5532 72.5819C48.416 72.5819 50.6614 69.9618 50.6614 64.0229C50.6614 58.2005 47.125 55.8133 43.7569 55.8133C42.8588 55.8133 41.8484 56.0462 41.3431 56.2209L41.1186 55.3475C46.0023 53.5426 48.6406 51.0972 48.6406 47.1379C48.6406 42.8293 46.1145 41.0826 43.7008 41.0826C40.5011 41.0826 38.6487 43.004 36.9647 45.333L36.2349 44.7507L38.8171 40.5586C40.3889 38.8119 42.8026 37.2398 46.2829 37.2398H46.3391C51.7841 37.2398 55.0399 40.4421 55.0399 45.2165C55.0399 46.7886 54.3662 48.0113 53.3558 49.0593C52.4577 49.9909 51.1105 50.8643 49.3142 51.8541Z" fill="#768088"/>
<path d="M76.6817 51.8541V52.087C81.9583 53.1932 84.8212 57.0943 84.765 61.1699C84.7089 71.0681 72.8646 74.9108 69.5527 74.9108C66.8021 74.9108 64.3322 73.8628 63.4341 72.9312C62.5921 72.1743 62.3675 71.5338 62.3675 71.0098C62.3675 69.9618 63.1534 69.0884 63.8832 68.5644C64.5568 68.0986 65.062 68.0986 65.6795 68.6226C67.0267 69.9036 69.8334 72.5819 72.9207 72.5819C75.7836 72.5819 78.0289 69.9618 78.0289 64.0229C78.0289 58.2005 74.4925 55.8133 71.1245 55.8133C70.2263 55.8133 69.2159 56.0462 68.7107 56.2209L68.4862 55.3475C73.3698 53.5426 76.0081 51.0972 76.0081 47.1379C76.0081 42.8293 73.4821 41.0826 71.0683 41.0826C67.8687 41.0826 66.0163 43.004 64.3322 45.333L63.6025 44.7507L66.1847 40.5586C67.7564 38.8119 70.1702 37.2398 73.6505 37.2398H73.7066C79.1516 37.2398 82.4074 40.4421 82.4074 45.2165C82.4074 46.7886 81.7338 48.0113 80.7234 49.0593C79.8252 49.9909 78.478 50.8643 76.6817 51.8541Z" fill="#768088"/>
<path d="M117.072 37.2398L94.5065 76.25L93.3277 75.3766L115.837 36.25L117.072 37.2398ZM97.4255 37.2398H97.5377C102.646 37.2398 104.891 42.3635 104.891 46.2646C104.891 50.2238 102.702 55.4058 97.4255 55.4058C92.2611 55.4058 90.0719 50.2238 90.0719 46.2646C90.0719 42.3635 92.2611 37.2398 97.4255 37.2398ZM97.5377 38.1714H97.4255C94.9556 38.1714 94.4504 43.7609 94.4504 46.3228C94.4504 48.8846 94.9556 54.4742 97.5377 54.4742C100.064 54.4742 100.513 48.7682 100.513 46.3228C100.513 43.4116 100.176 38.1714 97.5377 38.1714ZM113.255 56.7449H113.311C118.476 56.7449 120.721 61.9269 120.721 65.8861C120.721 69.7871 118.588 74.9108 113.255 74.9108C108.035 74.9108 105.789 69.7871 105.789 65.8861C105.789 61.9269 108.035 56.7449 113.255 56.7449ZM113.199 57.6765H113.143C110.617 57.6765 110.168 62.8002 110.168 65.8861C110.168 68.3897 110.673 73.9793 113.255 73.9793C115.95 73.9793 116.343 68.2733 116.343 65.8861C116.343 62.9167 115.894 57.6765 113.199 57.6765Z" fill="#768088"/>
<path d="M41.3297 92.7422L40.7871 92.8851C40.3852 91.6806 39.702 90.864 38.7174 90.864C37.994 90.864 37.4716 91.4356 37.4716 92.2114C37.4716 93.0689 38.195 93.5384 39.1193 93.9467C40.6666 94.6 41.6914 95.3146 41.6914 96.7641C41.6914 98.6628 39.9633 99.6223 38.3356 99.6223C37.2907 99.6223 36.3463 99.2344 35.9846 98.9282C35.844 98.6424 35.6631 97.2337 35.643 96.4579L36.2057 96.3762C36.5673 97.7032 37.4716 98.9282 38.6973 98.9282C39.4207 98.9282 40.0637 98.3769 40.0637 97.5603C40.0637 96.7029 39.5413 96.2333 38.4964 95.7229C37.3309 95.1717 35.9444 94.4775 35.9444 92.8851C35.9444 91.4152 37.1702 90.1902 39.059 90.1902C39.9231 90.1902 40.4656 90.374 40.8876 90.5577C41.0483 91.0069 41.2694 92.2726 41.3297 92.7422Z" fill="#768088"/>
<path d="M50.1295 97.152L50.451 97.6012C49.1851 99.2548 47.7785 99.6223 47.1154 99.6223C44.6036 99.6223 43.1568 97.5807 43.1568 95.2738C43.1568 93.8447 43.6793 92.5789 44.5031 91.6806C45.3471 90.7415 46.4322 90.1902 47.457 90.1902H47.4771C49.1851 90.1902 50.5515 91.7214 50.5314 93.3343C50.5314 93.7426 50.451 93.9263 50.0491 94.008C49.7276 94.0488 47.2158 94.253 44.8849 94.3346C44.9251 97.0091 46.4322 98.1524 47.8388 98.1524C48.6425 98.1524 49.4061 97.8257 50.1295 97.152ZM47.0149 90.9456H46.9948C46.1308 90.9456 45.2667 91.8235 45.0055 93.4772C46.0705 93.4772 47.1154 93.4568 48.2206 93.4159C48.5622 93.4159 48.6827 93.3138 48.6827 93.0076C48.7028 91.946 48.0598 90.9456 47.0149 90.9456Z" fill="#768088"/>
<path d="M58.8226 97.152L59.1441 97.6012C57.8782 99.2548 56.4716 99.6223 55.8085 99.6223C53.2967 99.6223 51.8499 97.5807 51.8499 95.2738C51.8499 93.8447 52.3724 92.5789 53.1962 91.6806C54.0402 90.7415 55.1253 90.1902 56.1501 90.1902H56.1702C57.8782 90.1902 59.2446 91.7214 59.2245 93.3343C59.2245 93.7426 59.1441 93.9263 58.7422 94.008C58.4207 94.0488 55.9089 94.253 53.578 94.3346C53.6182 97.0091 55.1253 98.1524 56.5318 98.1524C57.3356 98.1524 58.0992 97.8257 58.8226 97.152ZM55.708 90.9456H55.6879C54.8238 90.9456 53.9598 91.8235 53.6986 93.4772C54.7636 93.4772 55.8085 93.4568 56.9136 93.4159C57.2552 93.4159 57.3758 93.3138 57.3758 93.0076C57.3959 91.946 56.7529 90.9456 55.708 90.9456Z" fill="#768088"/>
<path d="M67.9929 92.3543H68.0331C68.656 91.2723 69.5 90.1902 70.4243 90.1902C71.1477 90.1902 71.63 90.7415 71.63 91.2519C71.63 91.7214 71.3486 92.1501 70.9267 92.3543C70.6855 92.4564 70.5047 92.4156 70.3841 92.2931C70.0827 92.0072 69.8416 91.8847 69.5 91.8847C69.0177 91.8847 68.4149 92.4156 67.9929 93.4976V97.2541C67.9929 98.5811 68.0934 98.7036 69.6406 98.8261V99.3773H64.8582V98.8261C66.084 98.7036 66.2246 98.5811 66.2246 97.2541V92.9872C66.2246 91.6806 66.1242 91.6193 65.019 91.4356V90.966C66.0438 90.8027 66.9681 90.5577 67.9929 90.1494V92.3543Z" fill="#768088"/>
<path d="M79.2504 97.152L79.5719 97.6012C78.3059 99.2548 76.8993 99.6223 76.2362 99.6223C73.7245 99.6223 72.2777 97.5807 72.2777 95.2738C72.2777 93.8447 72.8001 92.5789 73.624 91.6806C74.4679 90.7415 75.553 90.1902 76.5778 90.1902H76.5979C78.3059 90.1902 79.6723 91.7214 79.6522 93.3343C79.6522 93.7426 79.5719 93.9263 79.17 94.008C78.8485 94.0488 76.3367 94.253 74.0058 94.3346C74.046 97.0091 75.553 98.1524 76.9596 98.1524C77.7634 98.1524 78.527 97.8257 79.2504 97.152ZM76.1358 90.9456H76.1157C75.2516 90.9456 74.3876 91.8235 74.1263 93.4772C75.1913 93.4772 76.2362 93.4568 77.3414 93.4159C77.683 93.4159 77.8036 93.3138 77.8036 93.0076C77.8237 91.946 77.1807 90.9456 76.1358 90.9456Z" fill="#768088"/>
<path d="M89.9113 90.4352V90.9865C88.8664 91.1294 88.6855 91.3335 88.1631 92.4972C87.4799 94.0488 86.435 96.5599 85.3097 99.6019H84.727C83.8026 97.1316 82.8783 94.8042 81.9339 92.436C81.4717 91.3131 81.3109 91.1498 80.246 90.9865V90.4352H84.526V90.9865C83.461 91.1294 83.4208 91.2927 83.7223 92.1297C84.2246 93.5588 85.0284 95.6821 85.5508 97.0295C86.1938 95.4779 86.8569 93.6201 87.2789 92.2931C87.5803 91.3539 87.4598 91.1294 86.3345 90.9865V90.4352H89.9113Z" fill="#768088"/>
<path d="M97.1663 97.152L97.4879 97.6012C96.2219 99.2548 94.8153 99.6223 94.1522 99.6223C91.6405 99.6223 90.1937 97.5807 90.1937 95.2738C90.1937 93.8447 90.7161 92.5789 91.54 91.6806C92.3839 90.7415 93.469 90.1902 94.4938 90.1902H94.5139C96.2219 90.1902 97.5883 91.7214 97.5682 93.3343C97.5682 93.7426 97.4879 93.9263 97.086 94.008C96.7645 94.0488 94.2527 94.253 91.9218 94.3346C91.962 97.0091 93.469 98.1524 94.8756 98.1524C95.6794 98.1524 96.443 97.8257 97.1663 97.152ZM94.0518 90.9456H94.0317C93.1676 90.9456 92.3036 91.8235 92.0423 93.4772C93.1073 93.4772 94.1522 93.4568 95.2574 93.4159C95.599 93.4159 95.7196 93.3138 95.7196 93.0076C95.7397 91.946 95.0966 90.9456 94.0518 90.9456Z" fill="#768088"/>
<path d="M108.655 99.3773H104.375V98.8261C105.501 98.7036 105.641 98.5607 105.641 97.1316V93.7222C105.641 92.2931 105.119 91.456 103.893 91.456C103.15 91.456 102.406 91.9256 101.823 92.436V97.2541C101.823 98.6219 101.944 98.7036 103.069 98.8261V99.3773H98.6284V98.8261C99.9546 98.6832 100.055 98.5811 100.055 97.2337V93.0076C100.055 91.7214 99.9345 91.6602 98.8695 91.456V90.966C99.8742 90.7823 100.879 90.5169 101.823 90.129V91.7418C102.225 91.4356 102.647 91.1294 103.15 90.8027C103.732 90.4148 104.215 90.1902 104.797 90.1902C106.405 90.1902 107.389 91.3335 107.389 93.3138V97.2541C107.389 98.6219 107.51 98.6832 108.655 98.8261V99.3773Z" fill="#768088"/>
<path d="M119.249 98.3565V98.8873C118.787 98.9486 118.224 99.0711 117.662 99.214C117.119 99.3569 116.597 99.4998 116.175 99.6223L116.034 99.4998V98.0911C115.592 98.4382 115.19 98.7648 114.647 99.0915C114.065 99.4386 113.603 99.6223 113.06 99.6223C111.653 99.6223 110.548 98.7444 110.548 96.6008V92.5789C110.548 91.5173 110.388 91.3948 109.885 91.2927L109.323 91.1702V90.6598C109.765 90.6394 110.287 90.5781 110.85 90.5169C111.412 90.4556 111.995 90.3536 112.377 90.2923C112.317 90.966 112.296 91.946 112.296 93.2934V96.07C112.296 97.8053 113.14 98.2953 114.004 98.2953C114.708 98.2953 115.391 98.0095 116.034 97.3766V92.5789C116.034 91.5173 115.873 91.3948 115.23 91.2927L114.527 91.1702V90.6598C115.09 90.6394 115.773 90.5781 116.376 90.5169C116.958 90.4556 117.481 90.3536 117.802 90.2923V97.0703C117.802 98.1115 117.963 98.2545 118.727 98.3157L119.249 98.3565Z" fill="#768088"/>
<path d="M127.209 97.152L127.531 97.6012C126.265 99.2548 124.858 99.6223 124.195 99.6223C121.684 99.6223 120.237 97.5807 120.237 95.2738C120.237 93.8447 120.759 92.5789 121.583 91.6806C122.427 90.7415 123.512 90.1902 124.537 90.1902H124.557C126.265 90.1902 127.631 91.7214 127.611 93.3343C127.611 93.7426 127.531 93.9263 127.129 94.008C126.808 94.0488 124.296 94.253 121.965 94.3346C122.005 97.0091 123.512 98.1524 124.919 98.1524C125.723 98.1524 126.486 97.8257 127.209 97.152ZM124.095 90.9456H124.075C123.211 90.9456 122.347 91.8235 122.085 93.4772C123.15 93.4772 124.195 93.4568 125.301 93.4159C125.642 93.4159 125.763 93.3138 125.763 93.0076C125.783 91.946 125.14 90.9456 124.095 90.9456Z" fill="#768088"/>
<path d="M135.375 88.4957C134.792 88.4957 134.29 87.9853 134.29 87.3933C134.29 86.74 134.792 86.25 135.395 86.25C135.978 86.25 136.46 86.74 136.46 87.3933C136.46 87.9853 135.978 88.4957 135.375 88.4957ZM137.786 99.3773H133.225V98.8261C134.471 98.7036 134.612 98.5811 134.612 97.1928V93.0076C134.612 91.7214 134.531 91.6398 133.386 91.456V90.9456C134.431 90.7823 135.455 90.5169 136.38 90.1494V97.1928C136.38 98.5811 136.5 98.7036 137.786 98.8261V99.3773Z" fill="#768088"/>
<path d="M148.706 99.3773H144.426V98.8261C145.552 98.7036 145.692 98.5607 145.692 97.1316V93.7222C145.692 92.2931 145.17 91.456 143.944 91.456C143.201 91.456 142.457 91.9256 141.874 92.436V97.2541C141.874 98.6219 141.995 98.7036 143.12 98.8261V99.3773H138.679V98.8261C140.006 98.6832 140.106 98.5811 140.106 97.2337V93.0076C140.106 91.7214 139.985 91.6602 138.92 91.456V90.966C139.925 90.7823 140.93 90.5169 141.874 90.129V91.7418C142.276 91.4356 142.698 91.1294 143.201 90.8027C143.783 90.4148 144.266 90.1902 144.848 90.1902C146.456 90.1902 147.44 91.3335 147.44 93.3138V97.2541C147.44 98.6219 147.561 98.6832 148.706 98.8261V99.3773Z" fill="#768088"/>
<path d="M156.963 97.0703L157.324 97.5195C156.42 98.724 155.094 99.6223 153.908 99.6223C151.316 99.6223 149.809 97.5399 149.809 95.335C149.809 93.7834 150.512 92.3951 151.839 91.3744C152.924 90.5169 154.149 90.1902 154.913 90.1902H154.933C155.737 90.1902 156.4 90.4556 156.701 90.721C156.983 90.9456 157.043 91.1294 157.043 91.3539C157.043 91.8235 156.581 92.2931 156.34 92.2931C156.219 92.2931 156.119 92.2318 155.958 92.0685C155.295 91.456 154.612 91.1906 153.928 91.1906C152.703 91.1906 151.597 92.2522 151.597 94.3959C151.597 97.2133 153.506 98.1524 154.591 98.1524C155.435 98.1524 156.078 97.9074 156.963 97.0703Z" fill="#768088"/>
<path d="M161.36 92.3543H161.4C162.023 91.2723 162.867 90.1902 163.792 90.1902C164.515 90.1902 164.997 90.7415 164.997 91.2519C164.997 91.7214 164.716 92.1501 164.294 92.3543C164.053 92.4564 163.872 92.4156 163.751 92.2931C163.45 92.0072 163.209 91.8847 162.867 91.8847C162.385 91.8847 161.782 92.4156 161.36 93.4976V97.2541C161.36 98.5811 161.461 98.7036 163.008 98.8261V99.3773H158.225V98.8261C159.451 98.7036 159.592 98.5811 159.592 97.2541V92.9872C159.592 91.6806 159.491 91.6193 158.386 91.4356V90.966C159.411 90.8027 160.335 90.5577 161.36 90.1494V92.3543Z" fill="#768088"/>
<path d="M172.618 97.152L172.939 97.6012C171.673 99.2548 170.267 99.6223 169.604 99.6223C167.092 99.6223 165.645 97.5807 165.645 95.2738C165.645 93.8447 166.167 92.5789 166.991 91.6806C167.835 90.7415 168.92 90.1902 169.945 90.1902H169.965C171.673 90.1902 173.04 91.7214 173.02 93.3343C173.02 93.7426 172.939 93.9263 172.537 94.008C172.216 94.0488 169.704 94.253 167.373 94.3346C167.413 97.0091 168.92 98.1524 170.327 98.1524C171.131 98.1524 171.894 97.8257 172.618 97.152ZM169.503 90.9456H169.483C168.619 90.9456 167.755 91.8235 167.494 93.4772C168.559 93.4772 169.604 93.4568 170.709 93.4159C171.05 93.4159 171.171 93.3138 171.171 93.0076C171.191 91.946 170.548 90.9456 169.503 90.9456Z" fill="#768088"/>
<path d="M182.436 98.5607L180.628 99.6223C180.286 99.6223 179.864 99.4386 179.643 99.214C179.382 98.9486 179.241 98.6628 179.161 98.3361C178.357 98.8873 177.392 99.6223 176.83 99.6223C175.363 99.6223 174.358 98.3769 174.358 97.1112C174.358 96.0904 174.881 95.4779 175.966 95.1104C177.171 94.6817 178.658 94.1305 179.1 93.763V93.3547C179.1 91.9256 178.457 91.1089 177.493 91.1089C177.131 91.1089 176.83 91.2519 176.629 91.4968C176.388 91.7827 176.207 92.2318 176.046 92.8647C175.946 93.2322 175.725 93.3751 175.403 93.3751C175.021 93.3751 174.459 92.9668 174.459 92.4768C174.459 92.1501 174.72 91.9256 175.122 91.6193C175.704 91.1906 177.051 90.4148 178.196 90.1902C178.819 90.1902 179.442 90.374 179.884 90.7415C180.628 91.3539 180.828 92.191 180.828 93.2934V97.0091C180.828 97.9278 181.17 98.2136 181.512 98.2136C181.753 98.2136 182.034 98.1115 182.235 98.0095L182.436 98.5607ZM179.1 97.6828V94.4775C178.678 94.7021 177.855 95.09 177.412 95.2942C176.669 95.6617 176.247 96.0291 176.247 96.7845C176.247 97.8461 177.031 98.3361 177.633 98.3361C178.116 98.3361 178.739 98.0299 179.1 97.6828Z" fill="#768088"/>
<path d="M188.975 92.7422L188.432 92.8851C188.03 91.6806 187.347 90.864 186.363 90.864C185.639 90.864 185.117 91.4356 185.117 92.2114C185.117 93.0689 185.84 93.5384 186.764 93.9467C188.312 94.6 189.336 95.3146 189.336 96.7641C189.336 98.6628 187.608 99.6223 185.981 99.6223C184.936 99.6223 183.991 99.2344 183.63 98.9282C183.489 98.6424 183.308 97.2337 183.288 96.4579L183.851 96.3762C184.212 97.7032 185.117 98.9282 186.342 98.9282C187.066 98.9282 187.709 98.3769 187.709 97.5603C187.709 96.7029 187.186 96.2333 186.141 95.7229C184.976 95.1717 183.59 94.4775 183.59 92.8851C183.59 91.4152 184.815 90.1902 186.704 90.1902C187.568 90.1902 188.111 90.374 188.533 90.5577C188.693 91.0069 188.914 92.2726 188.975 92.7422Z" fill="#768088"/>
<path d="M197.775 97.152L198.096 97.6012C196.83 99.2548 195.424 99.6223 194.76 99.6223C192.249 99.6223 190.802 97.5807 190.802 95.2738C190.802 93.8447 191.324 92.5789 192.148 91.6806C192.992 90.7415 194.077 90.1902 195.102 90.1902H195.122C196.83 90.1902 198.197 91.7214 198.176 93.3343C198.176 93.7426 198.096 93.9263 197.694 94.008C197.373 94.0488 194.861 94.253 192.53 94.3346C192.57 97.0091 194.077 98.1524 195.484 98.1524C196.288 98.1524 197.051 97.8257 197.775 97.152ZM194.66 90.9456H194.64C193.776 90.9456 192.912 91.8235 192.651 93.4772C193.716 93.4772 194.76 93.4568 195.866 93.4159C196.207 93.4159 196.328 93.3138 196.328 93.0076C196.348 91.946 195.705 90.9456 194.66 90.9456Z" fill="#768088"/>
<path d="M48.8449 114.563V115.114C47.8402 115.257 47.6593 115.502 47.2574 116.604C46.6144 118.279 45.7303 120.953 44.806 123.73H44.2031C43.3994 121.566 42.5755 119.585 41.7717 117.503C41.0082 119.524 40.2044 121.525 39.4207 123.73H38.7978C38.0744 121.28 37.2907 118.85 36.4669 116.441C36.1253 115.38 35.9444 115.237 35 115.114V114.563H39.3002V115.114C38.0945 115.298 38.0141 115.441 38.2754 116.319C38.7375 117.829 39.2198 119.401 39.702 120.933H39.7422C40.4857 118.993 41.2091 116.952 42.033 114.665H42.5956C43.3391 116.747 44.1629 118.85 44.9868 120.994H45.027C45.449 119.667 46.0116 117.829 46.3532 116.441C46.5943 115.441 46.4738 115.298 45.1877 115.114V114.563H48.8449Z" fill="#768088"/>
<path d="M51.4466 112.623C50.8639 112.623 50.3615 112.113 50.3615 111.521C50.3615 110.868 50.8639 110.378 51.4667 110.378C52.0494 110.378 52.5317 110.868 52.5317 111.521C52.5317 112.113 52.0494 112.623 51.4466 112.623ZM53.8579 123.505H49.2965V122.954C50.5424 122.831 50.683 122.709 50.683 121.321V117.135C50.683 115.849 50.6027 115.767 49.4573 115.584V115.073C50.5022 114.91 51.527 114.645 52.4513 114.277V121.321C52.4513 122.709 52.5719 122.831 53.8579 122.954V123.505Z" fill="#768088"/>
<path d="M60.0408 122.77L58.6342 123.485C58.2926 123.668 57.9912 123.75 57.8103 123.75C56.4841 123.75 55.7406 122.954 55.7406 121.3V115.4H54.3742L54.2939 115.175L54.8364 114.563H55.7406V113.073L57.2276 111.684L57.4888 111.746V114.563H59.7193C59.9202 114.767 59.8599 115.237 59.5987 115.4H57.4888V120.606C57.4888 122.239 58.172 122.525 58.6744 122.525C59.1366 122.525 59.5786 122.362 59.8599 122.219L60.0408 122.77Z" fill="#768088"/>
<path d="M70.6592 123.505H66.3389V122.954C67.4642 122.831 67.6048 122.688 67.6048 121.402V117.993C67.6048 116.319 66.9618 115.543 65.7361 115.543C65.0127 115.543 64.2893 115.89 63.7468 116.502V121.402C63.7468 122.688 63.8673 122.831 64.9926 122.954V123.505H60.6322V122.954C61.8378 122.831 61.9986 122.729 61.9986 121.382V111.684C61.9986 110.419 61.9383 110.337 60.6723 110.214V109.724C61.657 109.581 62.9028 109.275 63.7468 109.01V115.767C64.4701 115.053 65.5351 114.318 66.6001 114.318C68.2479 114.318 69.3731 115.38 69.3731 117.789V121.402C69.3731 122.729 69.5138 122.831 70.6592 122.954V123.505Z" fill="#768088"/>
<path d="M73.8563 112.623C73.2736 112.623 72.7712 112.113 72.7712 111.521C72.7712 110.868 73.2736 110.378 73.8764 110.378C74.4591 110.378 74.9414 110.868 74.9414 111.521C74.9414 112.113 74.4591 112.623 73.8563 112.623ZM76.2676 123.505H71.7062V122.954C72.9521 122.831 73.0927 122.709 73.0927 121.321V117.135C73.0927 115.849 73.0124 115.767 71.867 115.584V115.073C72.9119 114.91 73.9367 114.645 74.861 114.277V121.321C74.861 122.709 74.9816 122.831 76.2676 122.954V123.505Z" fill="#768088"/>
<path d="M87.1876 123.505H82.9075V122.954C84.0328 122.831 84.1734 122.688 84.1734 121.259V117.85C84.1734 116.421 83.651 115.584 82.4252 115.584C81.6818 115.584 80.9383 116.053 80.3555 116.564V121.382C80.3555 122.75 80.4761 122.831 81.6014 122.954V123.505H77.1606V122.954C78.4868 122.811 78.5872 122.709 78.5872 121.361V117.135C78.5872 115.849 78.4667 115.788 77.4017 115.584V115.094C78.4064 114.91 79.4111 114.645 80.3555 114.257V115.87C80.7574 115.563 81.1794 115.257 81.6818 114.93C82.2645 114.543 82.7467 114.318 83.3295 114.318C84.937 114.318 85.9216 115.461 85.9216 117.442V121.382C85.9216 122.75 86.0422 122.811 87.1876 122.954V123.505Z" fill="#768088"/>
<path d="M95.0527 116.441L96.3387 115.808C96.7808 115.584 97.1827 115.441 97.5846 115.441C99.7547 115.441 101.242 117.094 101.242 119.218C101.242 121.688 99.4935 123.75 97.042 123.75C94.6508 123.75 92.8423 121.79 92.8423 118.626C92.8423 114.175 95.8966 111.868 98.0668 111.072C98.8706 110.786 99.9155 110.541 100.699 110.419L100.84 111.092C100.197 111.215 99.393 111.46 98.6696 111.807C97.4841 112.378 95.6354 113.665 95.0527 116.441ZM96.7406 116.645H96.7205C96.0172 116.645 95.3943 116.911 94.9321 117.156C94.8517 117.544 94.8116 118.095 94.8116 118.605C94.8116 121.096 95.8364 123.015 97.3836 123.015C98.8907 123.015 99.3528 121.341 99.3528 119.994C99.3528 118.258 98.4888 116.645 96.7406 116.645Z" fill="#768088"/>
<path d="M122.461 123.505H118.101V122.954C119.226 122.831 119.427 122.729 119.427 121.321V117.891C119.427 116.4 118.885 115.604 117.739 115.604C117.056 115.604 116.353 115.972 115.609 116.584C115.649 116.829 115.669 117.074 115.669 117.442V121.443C115.669 122.709 115.85 122.831 116.915 122.954V123.505H112.555V122.954C113.74 122.831 113.901 122.729 113.901 121.423V117.87C113.901 116.36 113.359 115.584 112.213 115.584C111.47 115.584 110.726 116.094 110.144 116.584V121.423C110.144 122.709 110.304 122.831 111.249 122.954V123.505H106.908V122.954C108.215 122.831 108.375 122.729 108.375 121.382V117.156C108.375 115.87 108.315 115.767 107.19 115.584V115.094C108.074 114.93 109.159 114.665 110.123 114.257V115.91C110.545 115.604 110.967 115.257 111.55 114.89C112.093 114.543 112.575 114.318 113.218 114.318C114.203 114.318 115.047 114.951 115.448 115.992C116.031 115.543 116.594 115.175 117.076 114.849C117.518 114.563 118.041 114.318 118.603 114.318C120.211 114.318 121.195 115.461 121.195 117.462V121.402C121.195 122.75 121.316 122.811 122.461 122.954V123.505Z" fill="#768088"/>
<path d="M128.054 114.318H128.074C130.586 114.318 132.434 116.38 132.434 118.871C132.434 122.178 130.083 123.75 128.034 123.75C125.2 123.75 123.573 121.484 123.573 119.238C123.573 115.87 126.145 114.318 128.054 114.318ZM127.813 115.012H127.793C126.647 115.012 125.622 116.237 125.622 118.564C125.622 121.137 126.647 123.056 128.255 123.056C129.4 123.056 130.385 122.198 130.385 119.361C130.385 116.89 129.48 115.012 127.813 115.012Z" fill="#768088"/>
<path d="M143.545 123.505H139.265V122.954C140.391 122.831 140.531 122.688 140.531 121.259V117.85C140.531 116.421 140.009 115.584 138.783 115.584C138.04 115.584 137.296 116.053 136.713 116.564V121.382C136.713 122.75 136.834 122.831 137.959 122.954V123.505H133.518V122.954C134.845 122.811 134.945 122.709 134.945 121.361V117.135C134.945 115.849 134.825 115.788 133.76 115.584V115.094C134.764 114.91 135.769 114.645 136.713 114.257V115.87C137.115 115.563 137.537 115.257 138.04 114.93C138.622 114.543 139.105 114.318 139.687 114.318C141.295 114.318 142.28 115.461 142.28 117.442V121.382C142.28 122.75 142.4 122.811 143.545 122.954V123.505Z" fill="#768088"/>
<path d="M149.739 122.77L148.332 123.485C147.99 123.668 147.689 123.75 147.508 123.75C146.182 123.75 145.438 122.954 145.438 121.3V115.4H144.072L143.992 115.175L144.534 114.563H145.438V113.073L146.925 111.684L147.187 111.746V114.563H149.417C149.618 114.767 149.558 115.237 149.296 115.4H147.187V120.606C147.187 122.239 147.87 122.525 148.372 122.525C148.834 122.525 149.276 122.362 149.558 122.219L149.739 122.77Z" fill="#768088"/>
<path d="M160.357 123.505H156.037V122.954C157.162 122.831 157.303 122.688 157.303 121.402V117.993C157.303 116.319 156.66 115.543 155.434 115.543C154.71 115.543 153.987 115.89 153.444 116.502V121.402C153.444 122.688 153.565 122.831 154.69 122.954V123.505H150.33V122.954C151.536 122.831 151.696 122.729 151.696 121.382V111.684C151.696 110.419 151.636 110.337 150.37 110.214V109.724C151.355 109.581 152.601 109.275 153.444 109.01V115.767C154.168 115.053 155.233 114.318 156.298 114.318C157.946 114.318 159.071 115.38 159.071 117.789V121.402C159.071 122.729 159.212 122.831 160.357 122.954V123.505Z" fill="#768088"/>
<path d="M167.134 116.87L166.592 117.013C166.19 115.808 165.506 114.992 164.522 114.992C163.798 114.992 163.276 115.563 163.276 116.339C163.276 117.197 163.999 117.666 164.924 118.074C166.471 118.728 167.496 119.442 167.496 120.892C167.496 122.79 165.768 123.75 164.14 123.75C163.095 123.75 162.151 123.362 161.789 123.056C161.648 122.77 161.468 121.361 161.447 120.586L162.01 120.504C162.372 121.831 163.276 123.056 164.502 123.056C165.225 123.056 165.868 122.505 165.868 121.688C165.868 120.831 165.346 120.361 164.301 119.851C163.135 119.299 161.749 118.605 161.749 117.013C161.749 115.543 162.975 114.318 164.863 114.318C165.728 114.318 166.27 114.502 166.692 114.685C166.853 115.135 167.074 116.4 167.134 116.87Z" fill="#768088"/>
<path d="M186.6 114.563V115.114C185.595 115.257 185.414 115.502 185.012 116.604C184.369 118.279 183.485 120.953 182.561 123.73H181.958C181.154 121.566 180.33 119.585 179.527 117.503C178.763 119.524 177.959 121.525 177.176 123.73H176.553C175.829 121.28 175.046 118.85 174.222 116.441C173.88 115.38 173.699 115.237 172.755 115.114V114.563H177.055V115.114C175.849 115.298 175.769 115.441 176.03 116.319C176.492 117.829 176.975 119.401 177.457 120.933H177.497C178.241 118.993 178.964 116.952 179.788 114.665H180.351C181.094 116.747 181.918 118.85 182.742 120.994H182.782C183.204 119.667 183.767 117.829 184.108 116.441C184.349 115.441 184.229 115.298 182.943 115.114V114.563H186.6Z" fill="#768088"/>
<path d="M189.202 112.623C188.619 112.623 188.117 112.113 188.117 111.521C188.117 110.868 188.619 110.378 189.222 110.378C189.804 110.378 190.287 110.868 190.287 111.521C190.287 112.113 189.804 112.623 189.202 112.623ZM191.613 123.505H187.052V122.954C188.297 122.831 188.438 122.709 188.438 121.321V117.135C188.438 115.849 188.358 115.767 187.212 115.584V115.073C188.257 114.91 189.282 114.645 190.206 114.277V121.321C190.206 122.709 190.327 122.831 191.613 122.954V123.505Z" fill="#768088"/>
<path d="M197.796 122.77L196.389 123.485C196.048 123.668 195.746 123.75 195.565 123.75C194.239 123.75 193.496 122.954 193.496 121.3V115.4H192.129L192.049 115.175L192.591 114.563H193.496V113.073L194.983 111.684L195.244 111.746V114.563H197.474C197.675 114.767 197.615 115.237 197.354 115.4H195.244V120.606C195.244 122.239 195.927 122.525 196.429 122.525C196.892 122.525 197.334 122.362 197.615 122.219L197.796 122.77Z" fill="#768088"/>
<path d="M208.414 123.505H204.094V122.954C205.219 122.831 205.36 122.688 205.36 121.402V117.993C205.36 116.319 204.717 115.543 203.491 115.543C202.768 115.543 202.044 115.89 201.502 116.502V121.402C201.502 122.688 201.622 122.831 202.748 122.954V123.505H198.387V122.954C199.593 122.831 199.754 122.729 199.754 121.382V111.684C199.754 110.419 199.693 110.337 198.427 110.214V109.724C199.412 109.581 200.658 109.275 201.502 109.01V115.767C202.225 115.053 203.29 114.318 204.355 114.318C206.003 114.318 207.128 115.38 207.128 117.789V121.402C207.128 122.729 207.269 122.831 208.414 122.954V123.505Z" fill="#768088"/>
<path d="M223.841 122.484V123.015C223.379 123.076 222.816 123.199 222.253 123.342C221.711 123.485 221.188 123.628 220.766 123.75L220.626 123.628V122.219C220.184 122.566 219.782 122.893 219.239 123.219C218.657 123.566 218.194 123.75 217.652 123.75C216.245 123.75 215.14 122.872 215.14 120.728V116.707C215.14 115.645 214.979 115.522 214.477 115.42L213.914 115.298V114.787C214.356 114.767 214.879 114.706 215.441 114.645C216.004 114.583 216.587 114.481 216.969 114.42C216.908 115.094 216.888 116.074 216.888 117.421V120.198C216.888 121.933 217.732 122.423 218.596 122.423C219.3 122.423 219.983 122.137 220.626 121.504V116.707C220.626 115.645 220.465 115.522 219.822 115.42L219.119 115.298V114.787C219.681 114.767 220.365 114.706 220.967 114.645C221.55 114.583 222.073 114.481 222.394 114.42V121.198C222.394 122.239 222.555 122.382 223.318 122.443L223.841 122.484Z" fill="#768088"/>
<path d="M230.537 116.87L229.994 117.013C229.592 115.808 228.909 114.992 227.924 114.992C227.201 114.992 226.679 115.563 226.679 116.339C226.679 117.197 227.402 117.666 228.326 118.074C229.874 118.728 230.898 119.442 230.898 120.892C230.898 122.79 229.17 123.75 227.543 123.75C226.498 123.75 225.553 123.362 225.192 123.056C225.051 122.77 224.87 121.361 224.85 120.586L225.413 120.504C225.774 121.831 226.679 123.056 227.904 123.056C228.628 123.056 229.271 122.505 229.271 121.688C229.271 120.831 228.748 120.361 227.703 119.851C226.538 119.299 225.151 118.605 225.151 117.013C225.151 115.543 226.377 114.318 228.266 114.318C229.13 114.318 229.673 114.502 230.095 114.685C230.255 115.135 230.476 116.4 230.537 116.87Z" fill="#768088"/>
<path d="M233.814 123.75H233.794C233.131 123.75 232.629 123.26 232.629 122.505C232.629 121.79 233.131 121.259 233.814 121.259C234.498 121.259 235 121.79 235 122.505C235 123.26 234.498 123.75 233.814 123.75Z" fill="#768088"/>
</svg>
