<svg width="270" height="160" viewBox="0 0 270 160" fill="none" xmlns="http://www.w3.org/2000/svg">
<path fill-rule="evenodd" clip-rule="evenodd" d="M29.4674 40H10.833V84.7052L29.4674 40ZM61.2025 40H42.5832L61.2025 84.7052V40ZM82.1121 115.279C81.9103 115.719 81.8049 116.195 81.8027 116.677C81.7717 117.131 81.843 117.587 82.0118 118.012C82.1807 118.437 82.4428 118.821 82.7801 119.137C83.1174 119.453 83.5216 119.694 83.9646 119.843C84.4076 119.992 84.8786 120.045 85.3449 119.999C86.2453 120.011 87.1393 119.85 87.9756 119.526C88.0688 119.495 88.0688 119.475 88.0688 119.405C88.0332 119.07 88.0159 118.734 88.017 118.398V110.667C88.017 110.587 88.0067 110.587 87.9342 110.587H86.246C86.1424 110.587 86.1424 110.617 86.1424 110.677V113.234H85.7074C85.2137 113.19 84.7158 113.245 84.2454 113.398C83.775 113.55 83.3424 113.796 82.9751 114.12C82.6079 114.444 82.314 114.838 82.1121 115.279ZM85.6453 114.744C85.814 114.738 85.9824 114.762 86.1424 114.815V118.358C85.9388 118.423 85.7245 118.45 85.5106 118.438C85.2656 118.453 85.0202 118.415 84.7917 118.328C84.5631 118.241 84.3569 118.107 84.1873 117.934C84.0177 117.762 83.8889 117.555 83.8097 117.33C83.7306 117.104 83.7031 116.864 83.7292 116.627C83.7075 116.376 83.7421 116.123 83.8304 115.887C83.9188 115.65 84.0588 115.435 84.2409 115.256C84.423 115.077 84.6429 114.939 84.8853 114.851C85.1277 114.762 85.387 114.726 85.6453 114.744ZM74.7386 119.757L75.3808 117.824H78.4983L79.1819 119.777C79.1913 119.806 79.211 119.831 79.2375 119.847C79.264 119.864 79.2956 119.871 79.3269 119.867H81.129C81.2015 119.867 81.2015 119.817 81.2015 119.746L78.0944 111.372C78.0944 111.301 78.0944 111.291 77.9804 111.291H75.8261C75.8033 111.293 75.7821 111.304 75.7668 111.321C75.7515 111.338 75.7431 111.359 75.7433 111.382C75.7474 111.656 75.7018 111.928 75.6086 112.187L72.9158 119.736C72.9158 119.817 72.9158 119.867 73.0297 119.867H74.5833C74.6182 119.868 74.6526 119.858 74.6808 119.838C74.7089 119.818 74.7293 119.789 74.7386 119.757ZM77.7507 115.436C77.8413 115.716 77.9243 115.972 77.9908 116.183H75.9194C75.9785 116 76.0419 115.806 76.1075 115.605L76.1081 115.603C76.4216 114.644 76.7839 113.535 76.9551 112.811C77.1266 113.508 77.4744 114.582 77.7507 115.436ZM96.1676 116.628C96.1676 117.489 95.8157 118.314 95.1893 118.923C94.5629 119.532 93.7133 119.874 92.8274 119.874C91.9415 119.874 91.0919 119.532 90.4655 118.923C89.8391 118.314 89.4872 117.489 89.4872 116.628C89.4599 116.188 89.5267 115.747 89.6834 115.333C89.8401 114.92 90.0833 114.542 90.3976 114.224C90.7119 113.907 91.0905 113.656 91.5096 113.487C91.9287 113.319 92.3792 113.236 92.8326 113.245C93.2887 113.225 93.7439 113.3 94.1678 113.464C94.5918 113.629 94.9745 113.88 95.2904 114.2C95.6063 114.521 95.848 114.903 95.9993 115.322C96.1506 115.74 96.208 116.186 96.1676 116.628ZM91.424 116.628C91.424 117.775 91.9729 118.51 92.874 118.51C93.7751 118.51 94.2515 117.826 94.2515 116.628C94.2515 115.621 93.8269 114.755 92.8015 114.755C92.0144 114.745 91.424 115.43 91.424 116.628ZM99.5645 110.688C99.5645 110.587 99.5334 110.587 99.4299 110.587H97.7727C97.7609 110.587 97.7492 110.589 97.7384 110.594C97.7333 110.596 97.7285 110.599 97.724 110.602C97.7189 110.605 97.7143 110.609 97.7101 110.614C97.7023 110.622 97.6964 110.633 97.6929 110.644C97.6894 110.655 97.6884 110.666 97.6899 110.677V119.566C97.6904 119.593 97.6983 119.619 97.7129 119.642C97.7275 119.665 97.7481 119.684 97.7727 119.697C98.4436 119.898 99.142 120 99.8442 119.999C100.365 120.045 100.89 119.985 101.385 119.822C101.88 119.659 102.335 119.397 102.72 119.053C103.104 118.708 103.41 118.289 103.618 117.823C103.825 117.356 103.93 116.853 103.925 116.345C103.938 115.93 103.863 115.517 103.705 115.132C103.547 114.747 103.309 114.398 103.006 114.106C102.702 113.814 102.341 113.586 101.943 113.436C101.545 113.286 101.12 113.217 100.693 113.234C100.312 113.233 99.9329 113.281 99.5645 113.375V110.688ZM99.5645 114.875C99.8249 114.809 100.093 114.775 100.362 114.774C100.589 114.763 100.817 114.8 101.028 114.882C101.24 114.964 101.43 115.09 101.587 115.251C101.743 115.411 101.862 115.603 101.935 115.813C102.008 116.023 102.033 116.245 102.009 116.465C102.033 116.723 102 116.983 101.912 117.227C101.823 117.471 101.682 117.694 101.497 117.88C101.312 118.066 101.089 118.211 100.841 118.306C100.593 118.401 100.327 118.442 100.062 118.428C99.8966 118.449 99.7296 118.449 99.5645 118.428V114.875ZM106.991 117.089C107.053 117.833 107.591 118.448 108.917 118.448C109.482 118.457 110.042 118.354 110.564 118.146C110.564 118.146 110.647 118.146 110.647 118.216V119.454C110.647 119.555 110.647 119.585 110.554 119.615C109.904 119.901 109.194 120.032 108.482 119.998C108.024 120.036 107.563 119.976 107.132 119.824C106.7 119.671 106.308 119.428 105.982 119.113C105.657 118.798 105.406 118.417 105.248 117.998C105.089 117.579 105.027 117.131 105.064 116.686C105.027 116.246 105.084 115.804 105.232 115.387C105.379 114.97 105.614 114.587 105.922 114.262C106.229 113.938 106.603 113.679 107.019 113.502C107.434 113.325 107.883 113.233 108.337 113.233C108.719 113.22 109.099 113.284 109.454 113.422C109.808 113.56 110.129 113.768 110.397 114.033C110.664 114.299 110.871 114.615 111.005 114.963C111.139 115.31 111.197 115.681 111.175 116.052C111.184 116.349 111.159 116.646 111.103 116.938C111.103 116.964 111.092 116.99 111.072 117.009C111.053 117.028 111.026 117.038 110.999 117.038C110.537 117.065 110.073 117.065 109.611 117.038L106.991 117.089ZM108.741 115.82C108.965 115.842 109.191 115.842 109.414 115.82V115.699C109.398 115.418 109.268 115.154 109.053 114.966C108.838 114.777 108.554 114.679 108.265 114.693C107.942 114.687 107.629 114.799 107.389 115.009C107.148 115.218 106.999 115.508 106.97 115.82H108.741ZM122.278 119.757C122.392 119.737 122.392 119.667 122.392 119.576L122.35 118.227C122.35 118.167 122.309 118.167 122.237 118.167C121.707 118.323 121.154 118.395 120.6 118.378C120.209 118.408 119.816 118.355 119.448 118.225C119.08 118.094 118.744 117.889 118.465 117.622C118.185 117.354 117.967 117.032 117.827 116.677C117.686 116.321 117.625 115.94 117.648 115.56C117.62 115.183 117.676 114.805 117.813 114.451C117.949 114.098 118.164 113.777 118.44 113.512C118.717 113.247 119.05 113.043 119.416 112.915C119.782 112.787 120.172 112.738 120.559 112.771C121.171 112.739 121.783 112.838 122.35 113.063C122.402 113.084 122.475 113.084 122.475 112.973V111.543C122.478 111.51 122.471 111.477 122.454 111.449C122.438 111.42 122.412 111.397 122.382 111.382C121.818 111.201 121.224 111.125 120.631 111.161C117.648 111.161 115.763 112.973 115.763 115.63C115.763 118.489 117.804 119.999 120.414 119.999C121.045 120.02 121.675 119.938 122.278 119.757ZM130.098 116.628C130.123 117.066 130.056 117.506 129.9 117.918C129.745 118.331 129.504 118.709 129.194 119.028C128.883 119.347 128.509 119.602 128.093 119.776C127.678 119.949 127.23 120.039 126.778 120.039C126.326 120.039 125.879 119.949 125.463 119.776C125.048 119.602 124.673 119.347 124.363 119.028C124.052 118.709 123.811 118.331 123.656 117.918C123.501 117.506 123.434 117.066 123.459 116.628C123.432 116.19 123.498 115.751 123.652 115.339C123.807 114.927 124.047 114.55 124.358 114.232C124.669 113.914 125.044 113.661 125.459 113.49C125.874 113.318 126.322 113.232 126.773 113.235C127.229 113.216 127.684 113.292 128.108 113.458C128.531 113.624 128.913 113.876 129.228 114.198C129.543 114.519 129.784 114.902 129.934 115.321C130.083 115.74 130.139 116.186 130.098 116.628ZM125.354 116.628C125.354 117.775 125.913 118.51 126.814 118.51C127.716 118.51 128.182 117.825 128.182 116.628C128.182 115.621 127.757 114.755 126.732 114.755C125.955 114.745 125.354 115.43 125.354 116.628ZM131.61 119.747C131.61 119.868 131.641 119.868 131.734 119.868H133.34C133.464 119.868 133.464 119.828 133.464 119.758V115.177C133.783 114.944 134.172 114.817 134.572 114.815C135.235 114.815 135.608 115.167 135.608 115.953V119.747C135.608 119.868 135.67 119.868 135.743 119.868H137.317C137.42 119.868 137.42 119.818 137.42 119.747V115.953C137.439 115.708 137.439 115.462 137.42 115.218C137.744 114.956 138.149 114.81 138.57 114.805C139.368 114.805 139.606 115.328 139.606 116.003V119.747C139.606 119.868 139.647 119.868 139.74 119.868H141.377C141.394 119.87 141.41 119.868 141.426 119.862C141.436 119.859 141.446 119.854 141.455 119.848C141.46 119.844 141.464 119.84 141.468 119.836C141.48 119.825 141.489 119.811 141.495 119.795C141.501 119.78 141.503 119.764 141.501 119.747V115.822C141.501 113.849 140.372 113.235 139.202 113.235C138.385 113.238 137.599 113.536 136.996 114.07C136.812 113.795 136.555 113.572 136.253 113.425C135.951 113.278 135.614 113.212 135.276 113.235C134.565 113.225 133.874 113.472 133.34 113.929C133.331 113.762 133.303 113.597 133.257 113.436C133.237 113.412 133.212 113.393 133.183 113.381C133.154 113.369 133.122 113.364 133.091 113.366H131.662C131.558 113.366 131.558 113.396 131.558 113.476C131.61 113.768 131.61 114.292 131.61 114.775V119.747ZM143.479 119.869C143.385 119.869 143.365 119.869 143.365 119.748V114.775C143.365 114.292 143.365 113.768 143.302 113.477C143.302 113.396 143.303 113.366 143.416 113.366H144.846C144.876 113.365 144.905 113.37 144.932 113.383C144.959 113.395 144.983 113.413 145.001 113.436C145.052 113.596 145.08 113.762 145.084 113.93C145.62 113.474 146.309 113.227 147.021 113.235C147.359 113.212 147.698 113.277 148.003 113.424C148.307 113.571 148.565 113.794 148.75 114.07C149.345 113.542 150.119 113.245 150.925 113.235C152.096 113.235 153.235 113.849 153.235 115.822V119.748C153.237 119.764 153.234 119.78 153.229 119.796C153.223 119.811 153.214 119.825 153.202 119.837C153.19 119.848 153.176 119.857 153.16 119.863C153.144 119.868 153.127 119.87 153.111 119.869H151.495C151.402 119.869 151.36 119.869 151.36 119.748V116.003C151.36 115.329 151.122 114.805 150.325 114.805C149.907 114.81 149.504 114.956 149.185 115.218C149.199 115.463 149.199 115.708 149.185 115.953V119.748C149.185 119.818 149.185 119.869 149.071 119.869H147.487C147.404 119.869 147.352 119.869 147.352 119.748V115.953C147.352 115.168 146.969 114.815 146.316 114.815C145.917 114.82 145.529 114.946 145.208 115.178V119.758C145.208 119.828 145.208 119.869 145.094 119.869H143.479ZM158.59 118.448C157.265 118.448 156.726 117.833 156.664 117.089L159.274 117.038C159.736 117.065 160.199 117.065 160.662 117.038C160.689 117.038 160.715 117.028 160.735 117.009C160.754 116.99 160.765 116.964 160.765 116.938C160.822 116.646 160.846 116.349 160.838 116.052C160.86 115.681 160.802 115.31 160.668 114.963C160.534 114.615 160.326 114.299 160.059 114.033C159.792 113.768 159.471 113.56 159.116 113.422C158.762 113.284 158.382 113.22 158 113.233C157.547 113.235 157.099 113.327 156.684 113.505C156.27 113.682 155.898 113.942 155.591 114.266C155.285 114.59 155.051 114.973 154.904 115.389C154.757 115.806 154.7 116.247 154.737 116.686C154.7 117.131 154.762 117.579 154.921 117.998C155.079 118.417 155.33 118.798 155.655 119.113C155.981 119.428 156.373 119.671 156.805 119.824C157.237 119.976 157.697 120.036 158.155 119.998C158.867 120.032 159.577 119.901 160.227 119.615C160.32 119.585 160.32 119.555 160.32 119.454V118.216C160.32 118.146 160.237 118.146 160.237 118.146C159.715 118.354 159.155 118.457 158.59 118.448ZM159.087 115.82C158.864 115.842 158.638 115.842 158.414 115.82H156.643C156.672 115.508 156.822 115.218 157.062 115.009C157.302 114.799 157.615 114.687 157.938 114.693C158.227 114.679 158.511 114.777 158.726 114.966C158.941 115.154 159.071 115.418 159.087 115.699V115.82ZM163.862 113.365C163.899 113.359 163.937 113.367 163.968 113.388C163.999 113.409 164.021 113.44 164.028 113.476C164.112 113.713 164.161 113.96 164.173 114.211C164.433 113.9 164.759 113.649 165.13 113.475C165.5 113.302 165.906 113.209 166.317 113.204C166.4 113.204 166.421 113.204 166.421 113.305V114.915C166.421 114.976 166.421 115.006 166.307 115.006C165.94 114.962 165.568 114.99 165.213 115.086C164.857 115.183 164.525 115.347 164.235 115.57V119.757C164.235 119.838 164.235 119.868 164.111 119.868H162.516C162.412 119.868 162.381 119.868 162.381 119.747V115.237C162.381 114.674 162.381 113.909 162.319 113.456C162.319 113.385 162.319 113.365 162.392 113.365H163.862ZM172.283 119.747C172.345 119.737 172.345 119.707 172.345 119.647V118.318H172.241C171.876 118.408 171.499 118.448 171.123 118.439C170.866 118.467 170.605 118.44 170.36 118.361C170.115 118.281 169.89 118.151 169.702 117.978C169.513 117.806 169.366 117.596 169.27 117.362C169.174 117.129 169.131 116.878 169.145 116.627C169.124 116.375 169.161 116.121 169.254 115.885C169.347 115.648 169.494 115.435 169.682 115.261C169.871 115.086 170.097 114.955 170.344 114.876C170.592 114.797 170.854 114.773 171.112 114.805C171.495 114.794 171.876 114.845 172.241 114.956C172.345 114.976 172.345 114.956 172.345 114.865V113.496C172.345 113.416 172.335 113.356 172.272 113.356C171.869 113.24 171.449 113.192 171.03 113.215C170.544 113.174 170.055 113.232 169.593 113.386C169.132 113.539 168.709 113.784 168.35 114.105C167.992 114.426 167.706 114.816 167.511 115.25C167.316 115.684 167.216 116.153 167.218 116.627C167.204 117.079 167.287 117.528 167.463 117.947C167.638 118.365 167.901 118.743 168.236 119.057C168.57 119.371 168.969 119.613 169.405 119.768C169.842 119.924 170.307 119.989 170.771 119.959C171.284 119.98 171.797 119.908 172.283 119.747ZM175.327 117.088C175.4 117.833 175.938 118.447 177.254 118.447C177.821 118.458 178.385 118.355 178.911 118.145C178.911 118.145 178.994 118.145 178.994 118.216V119.454C178.994 119.555 178.994 119.585 178.9 119.615C178.251 119.9 177.541 120.031 176.829 119.997C176.369 120.04 175.904 119.984 175.469 119.834C175.033 119.683 174.637 119.441 174.308 119.125C173.979 118.809 173.725 118.427 173.565 118.006C173.405 117.584 173.341 117.134 173.38 116.686C173.343 116.247 173.399 115.805 173.546 115.389C173.693 114.972 173.927 114.59 174.234 114.266C174.54 113.941 174.913 113.682 175.327 113.505C175.742 113.327 176.189 113.234 176.642 113.233C177.024 113.22 177.404 113.284 177.759 113.422C178.114 113.56 178.435 113.768 178.702 114.033C178.969 114.299 179.176 114.615 179.31 114.963C179.444 115.31 179.502 115.681 179.48 116.052C179.491 116.348 179.47 116.645 179.418 116.937C179.416 116.963 179.404 116.988 179.385 117.006C179.366 117.024 179.341 117.036 179.315 117.038C178.852 117.065 178.389 117.065 177.927 117.038L175.327 117.088ZM177.077 115.82C177.301 115.843 177.527 115.843 177.751 115.82V115.699C177.744 115.56 177.709 115.424 177.648 115.298C177.588 115.173 177.502 115.06 177.396 114.966C177.29 114.873 177.166 114.8 177.032 114.754C176.897 114.707 176.754 114.686 176.611 114.693C176.289 114.686 175.976 114.799 175.735 115.008C175.495 115.218 175.346 115.508 175.317 115.82H177.077ZM47.8872 84.7054L36.0242 56.4766L27.8827 75.7159H36.5639L40.1119 84.7054H47.8872ZM96.2105 58.3106C97.7235 58.3106 99.3341 58.0305 101.018 57.2919C101.164 57.241 101.189 57.1901 101.189 57.0627C101.116 56.5534 101.091 55.7894 101.091 55.2037V40.1528C101.091 40.0509 101.067 40 100.945 40H97.8699C97.7723 40 97.6991 40.0509 97.6991 40.1783V45.1952C97.5881 45.1875 97.4883 45.1798 97.3977 45.1728C97.1895 45.1567 97.0298 45.1443 96.8938 45.1443C92.428 45.1443 89.8169 48.2003 89.8169 51.8421C89.8169 56.1714 92.5988 58.3106 96.2105 58.3106ZM97.6991 55.1273C97.3575 55.2546 96.967 55.2801 96.5522 55.2801C94.6975 55.2801 93.3065 54.185 93.3065 51.6638C93.3065 49.2954 94.9172 48.0984 96.7962 48.0984C97.1378 48.0984 97.4551 48.1239 97.6991 48.2258V55.1273ZM83.2944 54.0831L84.5389 57.8777C84.5877 58.005 84.6609 58.056 84.8074 58.056H87.9798C88.1262 58.056 88.1506 57.9541 88.1018 57.8267L82.5623 41.528C82.5379 41.4007 82.4891 41.3752 82.367 41.3752H78.4625C78.3893 41.3752 78.3161 41.4516 78.3161 41.5535C78.2673 42.5212 78.1697 42.8268 78.0721 43.1069L73.1914 57.8013C73.167 57.9541 73.2158 58.056 73.3867 58.056H76.2174C76.3639 58.056 76.4371 57.9796 76.4859 57.8522L77.6572 54.0831H83.2944ZM78.5357 50.8998C78.5978 50.6981 78.6621 50.4894 78.7281 50.2753C79.3373 48.2997 80.0869 45.8688 80.4392 44.3294H80.4636C80.7722 45.5328 81.3078 47.3004 81.7755 48.8436C82.0104 49.619 82.2282 50.3377 82.3914 50.8998H78.5357ZM104.258 51.7402C104.258 48.1239 106.576 45.1443 110.334 45.1443C114.263 45.1443 116.288 48.2258 116.288 51.6638C116.288 55.6621 113.799 58.3106 110.285 58.3106C106.112 58.3106 104.258 55.0254 104.258 51.7402ZM112.823 51.7402C112.823 49.7538 112.042 48.0984 110.188 48.0984C108.772 48.0984 107.699 49.4227 107.699 51.6893C107.699 53.9303 108.699 55.3565 110.334 55.3565C111.749 55.3565 112.823 54.0831 112.823 51.7402ZM119.625 40C119.503 40 119.454 40.0509 119.454 40.1783V57.4702C119.454 57.5721 119.528 57.6994 119.601 57.7249C120.845 58.1324 122.139 58.3106 123.432 58.3106C127.141 58.3106 130.753 55.9677 130.753 51.2054C130.753 47.7928 128.484 45.1443 124.896 45.1443C124.164 45.1443 123.481 45.2462 122.846 45.4244V40.2037C122.846 40.0255 122.798 40 122.602 40H119.625ZM127.288 51.5365C127.288 54.185 125.604 55.3565 123.749 55.3565C123.457 55.3565 123.139 55.331 122.846 55.2546V48.3531C122.896 48.3413 122.945 48.3282 122.997 48.3146L122.997 48.3146C123.28 48.2403 123.626 48.1494 124.286 48.1494C125.994 48.1494 127.288 49.219 127.288 51.5365ZM144.091 52.5551C143.774 52.6061 142.847 52.657 141.578 52.657H136.819C136.941 54.1086 137.917 55.3055 140.309 55.3055C141.407 55.3055 142.383 55.1273 143.31 54.7198C143.383 54.6689 143.457 54.6943 143.457 54.8471V57.2665C143.457 57.4447 143.408 57.5211 143.286 57.5721C142.31 58.056 141.236 58.3106 139.552 58.3106C134.964 58.3106 133.354 55.0254 133.354 51.8675C133.354 48.3531 135.428 45.1443 139.259 45.1443C142.944 45.1443 144.408 48.1239 144.408 50.6451C144.408 51.4346 144.36 52.0713 144.286 52.3514C144.262 52.4787 144.213 52.5297 144.091 52.5551ZM139.137 47.9456C137.6 47.9456 136.941 49.1426 136.795 50.1867H139.991C140.772 50.1867 141.114 50.1612 141.212 50.1358V49.9575C141.212 49.3463 140.748 47.9456 139.137 47.9456ZM78.5113 84.7059C82.2694 84.7059 84.6609 82.7704 84.6609 79.6889C84.6609 77.6261 83.758 76.0217 80.5124 74.621L79.6095 74.239C77.7792 73.475 77.2668 72.9402 77.2668 72.1508C77.2668 71.3103 77.9257 70.6482 79.8047 70.6482C81.2445 70.6482 82.5867 70.9029 83.5628 71.4886C83.7092 71.5905 83.7824 71.4632 83.7824 71.3613V68.509C83.7824 68.3562 83.758 68.2543 83.636 68.1779C82.7575 67.7195 81.3665 67.5158 79.8291 67.5158C75.949 67.5158 73.9479 69.7059 73.9479 72.4564C73.9479 74.4428 74.7776 76.0217 77.7792 77.346L78.9994 77.8808C80.6588 78.6193 81.2201 79.2051 81.2201 80.02C81.2201 80.9113 80.488 81.5735 78.6334 81.5735C77.1692 81.5735 75.5585 81.1405 74.2164 80.2492C74.1188 80.1728 74.0211 80.2492 74.0211 80.3765V83.4071C74.0211 83.6108 74.07 83.7381 74.192 83.8145C75.2169 84.3748 76.7055 84.7059 78.5113 84.7059ZM87.2669 78.1354C87.2669 74.5192 89.5852 71.5396 93.3433 71.5396C97.2723 71.5396 99.2977 74.621 99.2977 78.059C99.2977 82.0573 96.8086 84.7059 93.2945 84.7059C89.1216 84.7059 87.2669 81.4207 87.2669 78.1354ZM95.8325 78.1354C95.8325 76.149 95.0516 74.4937 93.1969 74.4937C91.7815 74.4937 90.7078 75.818 90.7078 78.0845C90.7078 80.3256 91.7083 81.7517 93.3433 81.7517C94.7587 81.7517 95.8325 80.4784 95.8325 78.1354ZM102.464 81.1915C102.464 84.0183 103.781 84.7059 105.538 84.7059C106.295 84.7059 106.759 84.604 107.051 84.4767C107.198 84.4257 107.222 84.3748 107.222 84.1711V81.9809C107.222 81.8536 107.198 81.8027 107.1 81.8027C106.881 81.8281 106.856 81.8281 106.661 81.8281H106.661C106.075 81.8281 105.856 81.5735 105.856 80.8604V66.599C105.856 66.4717 105.782 66.3953 105.612 66.3953H102.708C102.512 66.3953 102.464 66.4717 102.464 66.599V81.1915ZM120.365 71.7942C120.536 71.7942 120.56 71.8451 120.56 71.9979V81.6244C120.56 82.7414 120.632 83.4817 120.683 84.0073L120.684 84.0101L120.684 84.0142L120.696 84.1323L120.702 84.1989L120.706 84.2475C120.731 84.4003 120.658 84.4512 120.487 84.4512H117.9C117.705 84.4512 117.656 84.4003 117.607 84.2729L117.594 84.2105C117.546 83.9865 117.483 83.6926 117.461 83.4835C116.387 84.4512 115.167 84.7059 114.118 84.7059C111.677 84.7059 109.993 83.3052 109.993 79.7908V71.9979C109.993 71.8197 110.042 71.7942 110.213 71.7942H113.19C113.337 71.7942 113.361 71.8451 113.361 71.9979V79.3833C113.361 80.7585 113.922 81.6499 115.264 81.6499C116.07 81.6499 116.631 81.3952 117.168 80.9113V71.9979C117.168 71.8451 117.241 71.7942 117.412 71.7942H120.365ZM130.576 81.7263L130.466 81.7456C130.22 81.7893 130.002 81.8281 129.746 81.8281C128.746 81.8281 128.428 81.3188 128.428 80.1983V74.7484H130.722C130.844 74.7229 130.893 74.6974 130.893 74.5701V71.9979C130.893 71.8451 130.844 71.7942 130.698 71.7942H128.453C128.453 70.5463 128.501 69.0438 128.575 68.2543C128.575 68.0761 128.501 68.0761 128.379 68.1015L125.524 68.4835C125.402 68.509 125.329 68.5854 125.305 68.7127C125.183 69.4258 125.085 70.9283 125.061 71.7942H123.596C123.426 71.7942 123.377 71.8451 123.377 72.0234V74.5192C123.377 74.672 123.426 74.7229 123.572 74.7484H125.036V81.0641C125.036 83.6108 126.281 84.7059 128.404 84.7059C129.258 84.7059 129.892 84.604 130.576 84.3493C130.722 84.2984 130.747 84.1711 130.747 84.0183V81.9045C130.747 81.7517 130.673 81.7263 130.576 81.7263ZM134.067 84.4512C133.896 84.4512 133.823 84.3748 133.823 84.222V71.9979C133.823 71.8706 133.872 71.7942 134.018 71.7942H137.02C137.166 71.7942 137.215 71.8451 137.215 71.9979V84.222C137.215 84.3748 137.19 84.4512 136.995 84.4512H134.067ZM137.434 68.4581C137.434 69.655 136.678 70.4445 135.531 70.4445C134.384 70.4445 133.652 69.655 133.652 68.4581C133.652 67.3121 134.457 66.4971 135.555 66.4971C136.727 66.4971 137.434 67.3121 137.434 68.4581ZM146.458 71.5396C142.7 71.5396 140.382 74.5192 140.382 78.1354C140.382 81.4207 142.237 84.7059 146.41 84.7059C149.924 84.7059 152.413 82.0573 152.413 78.059C152.413 74.621 150.387 71.5396 146.458 71.5396ZM146.312 74.4937C148.167 74.4937 148.948 76.149 148.948 78.1354C148.948 80.4784 147.874 81.7517 146.458 81.7517C144.823 81.7517 143.823 80.3256 143.823 78.0845C143.823 75.818 144.897 74.4937 146.312 74.4937ZM155.798 84.4512C155.628 84.4512 155.579 84.3748 155.579 84.222V74.7484C155.579 73.8825 155.53 72.5582 155.481 71.9979C155.457 71.8706 155.506 71.7942 155.652 71.7942H158.214C158.41 71.7942 158.483 71.8706 158.532 71.9979C158.629 72.2271 158.678 72.4818 158.727 72.8384C159.752 71.9725 160.899 71.5396 162.192 71.5396C164.071 71.5396 166.292 72.5582 166.292 76.6584V84.222C166.292 84.3748 166.243 84.4512 166.072 84.4512H163.144C162.973 84.4512 162.9 84.3748 162.9 84.222V76.964C162.9 75.436 162.265 74.621 160.996 74.621C160.167 74.621 159.483 74.9266 158.971 75.4105V84.2475C158.971 84.3748 158.898 84.4512 158.751 84.4512H155.798ZM176.984 84.2475C176.984 84.3748 177.033 84.4512 177.155 84.4512H180.157C180.303 84.4512 180.352 84.3748 180.352 84.2475V79.2305H181.743C185.501 79.2305 188.551 77.4733 188.551 73.3477C188.551 70.5718 186.843 67.7195 181.914 67.7195C180.125 67.7195 178.268 67.7669 177.241 67.7931L177.131 67.7959C177.009 67.7959 176.984 67.8469 176.984 67.9997V84.2475ZM180.352 70.8519C180.571 70.8265 181.23 70.801 182.011 70.801C184.134 70.801 185.184 71.8197 185.184 73.4241C185.184 75.5124 183.646 76.1236 181.718 76.1236H181.718C181.035 76.1236 180.767 76.1236 180.352 76.0981V70.8519ZM195.865 81.9555C196.426 81.9555 196.914 81.8791 197.378 81.7263V79.0013C196.987 78.9504 196.646 78.9249 196.157 78.9249C194.425 78.9249 193.717 79.5107 193.717 80.4275C193.717 81.2679 194.327 81.9555 195.865 81.9555ZM195.596 71.5396C199.11 71.5396 200.672 73.8061 200.672 76.7093V81.6244C200.672 82.2865 200.672 82.8213 200.721 83.4325C200.721 83.4835 200.721 83.5344 200.672 83.5599C198.525 84.4257 197.109 84.7059 195.352 84.7059C192.643 84.7059 190.423 83.4071 190.423 80.4529C190.423 77.7534 192.692 76.3273 195.938 76.3273C196.597 76.3273 197.158 76.3273 197.378 76.3782V76.2C197.378 75.7161 197.085 74.5956 195.035 74.5956C193.815 74.5956 192.741 74.8502 191.814 75.2832C191.716 75.3341 191.594 75.2832 191.594 75.1558V72.5837C191.594 72.4564 191.618 72.38 191.765 72.329C192.839 71.7942 194.23 71.5396 195.596 71.5396ZM204.573 71.7942C204.451 71.7942 204.426 71.8452 204.426 71.9725C204.524 72.8638 204.548 74.3409 204.548 75.436V84.222C204.548 84.3748 204.597 84.4512 204.792 84.4512H207.721C207.891 84.4512 207.94 84.4003 207.94 84.2475L207.965 76.149C208.477 75.5378 209.892 74.9776 211.65 75.054C211.82 75.054 211.869 75.003 211.869 74.8757V71.7433C211.869 71.5905 211.82 71.5396 211.674 71.5396C209.941 71.5396 208.599 72.4564 207.794 73.4496C207.769 72.8893 207.647 72.3545 207.525 72.0234C207.477 71.8706 207.403 71.7942 207.232 71.7942H204.573ZM221.256 81.7456L221.365 81.7263C221.463 81.7263 221.536 81.7517 221.536 81.9045V84.0183C221.536 84.1711 221.512 84.2984 221.365 84.3493C220.682 84.604 220.047 84.7059 219.193 84.7059C217.07 84.7059 215.826 83.6108 215.826 81.0641V74.7484H214.361C214.215 74.7229 214.166 74.672 214.166 74.5192V72.0234C214.166 71.8451 214.215 71.7942 214.386 71.7942H215.85C215.874 70.9283 215.972 69.4258 216.094 68.7127C216.119 68.5854 216.192 68.509 216.314 68.4835L219.169 68.1015C219.291 68.0761 219.364 68.0761 219.364 68.2543C219.291 69.0438 219.242 70.5463 219.242 71.7942H221.487C221.634 71.7942 221.682 71.8451 221.682 71.9979V74.5701C221.682 74.6974 221.634 74.7229 221.512 74.7484H219.218V80.1983C219.218 81.3188 219.535 81.8281 220.535 81.8281C220.791 81.8281 221.01 81.7893 221.256 81.7456ZM224.565 84.222C224.565 84.3748 224.613 84.4512 224.784 84.4512H227.737C227.883 84.4512 227.957 84.3748 227.957 84.2475V75.4105C228.469 74.9266 229.152 74.621 229.982 74.621C231.251 74.621 231.885 75.436 231.885 76.964V84.222C231.885 84.3748 231.959 84.4512 232.13 84.4512H235.058C235.229 84.4512 235.278 84.3748 235.278 84.222V76.6584C235.278 72.5582 233.057 71.5396 231.178 71.5396C229.884 71.5396 228.737 71.9725 227.713 72.8384C227.664 72.4818 227.615 72.2271 227.517 71.9979C227.468 71.8706 227.395 71.7942 227.2 71.7942H224.638C224.491 71.7942 224.443 71.8706 224.467 71.9979C224.516 72.5582 224.565 73.8825 224.565 74.7484V84.222ZM249.177 78.9504C248.86 79.0013 247.933 79.0522 246.664 79.0522H241.905C242.027 80.5039 243.003 81.7008 245.395 81.7008C246.493 81.7008 247.469 81.5225 248.397 81.1151C248.47 81.0641 248.543 81.0896 248.543 81.2424V83.6617C248.543 83.84 248.494 83.9164 248.372 83.9673C247.396 84.4512 246.322 84.7059 244.638 84.7059C240.051 84.7059 238.44 81.4207 238.44 78.2628C238.44 74.7484 240.514 71.5396 244.346 71.5396C248.03 71.5396 249.495 74.5192 249.495 77.0404C249.495 77.8298 249.446 78.4665 249.373 78.7467C249.348 78.874 249.299 78.9249 249.177 78.9504ZM244.224 74.3409C242.686 74.3409 242.027 75.5378 241.881 76.582H245.078C245.859 76.582 246.2 76.5565 246.298 76.531V76.3528C246.298 75.7416 245.834 74.3409 244.224 74.3409ZM252.66 71.7942C252.538 71.7942 252.514 71.8452 252.514 71.9725C252.611 72.8638 252.636 74.3409 252.636 75.436V84.222C252.636 84.3748 252.685 84.4512 252.88 84.4512H255.808C255.979 84.4512 256.028 84.4003 256.028 84.2475L256.052 76.149C256.565 75.5378 257.98 74.9776 259.737 75.054C259.908 75.054 259.957 75.003 259.957 74.8757V71.7433C259.957 71.5905 259.908 71.5396 259.762 71.5396C258.029 71.5396 256.687 72.4564 255.881 73.4496C255.857 72.8893 255.735 72.3545 255.613 72.0234C255.564 71.8706 255.491 71.7942 255.32 71.7942H252.66ZM78.6451 100.921C78.6914 101.043 78.7146 101.182 78.7146 101.338C78.7146 101.524 78.6683 101.692 78.5756 101.844C78.4829 101.995 78.3397 102.115 78.1459 102.204C77.9563 102.288 77.7078 102.33 77.4003 102.33C77.1349 102.33 76.8948 102.305 76.6799 102.254C76.4651 102.204 76.2818 102.12 76.1302 102.002C75.9827 101.884 75.869 101.73 75.7889 101.54C75.7089 101.347 75.6689 101.111 75.6689 100.833H73.6089C73.6089 101.363 73.7163 101.823 73.9312 102.21C74.1502 102.594 74.4409 102.909 74.8032 103.158C75.1697 103.407 75.5783 103.592 76.0291 103.714C76.4798 103.832 76.9369 103.891 77.4003 103.891C77.91 103.891 78.3713 103.834 78.7841 103.72C79.197 103.607 79.5508 103.44 79.8457 103.221C80.1448 102.998 80.3723 102.728 80.5281 102.412C80.6882 102.096 80.7683 101.734 80.7683 101.326C80.7683 100.942 80.7009 100.599 80.5661 100.296C80.4355 99.9922 80.2396 99.7205 79.9784 99.4804C79.7172 99.2403 79.395 99.0254 79.0116 98.8359C78.6325 98.6463 78.1965 98.4736 77.7036 98.3177C77.4213 98.2335 77.1707 98.145 76.9516 98.0523C76.7326 97.9597 76.5472 97.8628 76.3956 97.7617C76.2481 97.6563 76.1344 97.5447 76.0543 97.4268C75.9785 97.3046 75.9406 97.1698 75.9406 97.0223C75.9406 96.837 75.9911 96.6664 76.0923 96.5105C76.1976 96.3546 76.3513 96.2325 76.5535 96.144C76.76 96.0513 77.0148 96.005 77.3181 96.005C77.6299 96.005 77.8889 96.0598 78.0954 96.1693C78.306 96.2788 78.4619 96.4305 78.563 96.6243C78.6683 96.8138 78.7209 97.0329 78.7209 97.2814H80.7683C80.7683 96.7169 80.625 96.2219 80.3386 95.7965C80.0521 95.3668 79.6519 95.034 79.138 94.7981C78.6283 94.558 78.0364 94.4379 77.3624 94.4379C76.8568 94.4379 76.3935 94.499 75.9722 94.6212C75.5509 94.7391 75.1844 94.9118 74.8727 95.1393C74.561 95.3626 74.3187 95.6322 74.146 95.9481C73.9733 96.2641 73.8869 96.6179 73.8869 97.0097C73.8869 97.4141 73.9691 97.768 74.1334 98.0713C74.3019 98.3746 74.5315 98.64 74.8222 98.8675C75.1128 99.095 75.4435 99.2951 75.8142 99.4678C76.1891 99.6363 76.583 99.7879 76.9959 99.9227C77.3581 100.036 77.6509 100.148 77.8742 100.258C78.0975 100.363 78.2702 100.468 78.3923 100.574C78.5145 100.679 78.5988 100.795 78.6451 100.921ZM83.6532 100.567H85.2203C85.9533 100.567 86.581 100.447 87.1034 100.207C87.63 99.9628 88.0323 99.6215 88.3103 99.1834C88.5925 98.7453 88.7337 98.2293 88.7337 97.6353C88.7337 97.0413 88.5925 96.5147 88.3103 96.0555C88.0323 95.5922 87.63 95.2278 87.1034 94.9624C86.581 94.697 85.9533 94.5643 85.2203 94.5643H81.5933V103.765H83.6532V100.567ZM83.6532 98.9686V96.163H85.2203C85.5616 96.163 85.8354 96.2325 86.0418 96.3715C86.2524 96.5105 86.4062 96.6938 86.5031 96.9212C86.6042 97.1445 86.6547 97.3867 86.6547 97.6479C86.6547 97.9007 86.6042 98.1282 86.5031 98.3304C86.4062 98.5284 86.2524 98.6842 86.0418 98.798C85.8354 98.9117 85.5616 98.9686 85.2203 98.9686H83.6532ZM95.8523 103.765V102.172H91.6565V99.809H95.2204V98.2672H91.6565V96.163H95.8586V94.5643H91.6565H90.9551H89.5966V103.765H90.9551H91.6565H95.8523ZM103.811 100.681H101.764C101.743 101.039 101.667 101.336 101.537 101.572C101.406 101.808 101.219 101.985 100.974 102.103C100.73 102.217 100.424 102.273 100.058 102.273C99.7378 102.273 99.4661 102.217 99.2428 102.103C99.0195 101.989 98.8363 101.816 98.6931 101.585C98.554 101.353 98.4529 101.06 98.3898 100.706C98.3266 100.352 98.295 99.9333 98.295 99.4488V98.8738C98.295 98.3851 98.3308 97.9639 98.4024 97.61C98.474 97.2519 98.5814 96.9571 98.7247 96.7254C98.8721 96.4937 99.0553 96.3231 99.2744 96.2135C99.4977 96.104 99.7567 96.0492 100.052 96.0492C100.456 96.0492 100.78 96.1124 101.025 96.2388C101.269 96.3652 101.45 96.5526 101.568 96.8012C101.686 97.0455 101.754 97.3467 101.77 97.7048H103.824C103.765 97.0729 103.586 96.5105 103.287 96.0176C102.992 95.5248 102.575 95.1372 102.036 94.8549C101.497 94.5727 100.835 94.4316 100.052 94.4316C99.4703 94.4316 98.9437 94.5348 98.4719 94.7412C98.0001 94.9476 97.5957 95.2446 97.2587 95.6322C96.9217 96.0197 96.6626 96.4873 96.4814 97.035C96.3003 97.5826 96.2097 98.1998 96.2097 98.8864V99.4488C96.2097 100.135 96.2961 100.753 96.4688 101.3C96.6457 101.844 96.8985 102.309 97.2271 102.697C97.5599 103.08 97.9643 103.375 98.4403 103.581C98.9163 103.788 99.4555 103.891 100.058 103.891C100.812 103.891 101.463 103.756 102.01 103.487C102.558 103.213 102.986 102.836 103.293 102.356C103.605 101.871 103.778 101.313 103.811 100.681ZM106.76 103.765V94.5643H104.706V103.765H106.76ZM112.191 94.5643H112.722L116.14 103.765H113.941L113.355 101.932H110.178L109.594 103.765H107.395L110.801 94.5643H111.313H112.191ZM110.686 100.34H112.846L111.765 96.9577L110.686 100.34ZM122.52 103.765V102.172H118.577V94.5643H116.517V103.765H117.875H118.577H122.52ZM125.335 103.765V94.5643H123.282V103.765H125.335ZM133.383 103.765V102.172H128.851L133.313 95.6638V94.5643H132.631H131.898H126.28V96.163H130.788L126.293 102.64V103.765H126.792H127.759H133.383ZM140.35 103.765V102.172H136.154V99.809H139.718V98.2672H136.154V96.163H140.356V94.5643H136.154H135.453H134.094V103.765H135.453H136.154H140.35ZM143.033 103.765H143.886C144.505 103.765 145.071 103.659 145.585 103.449C146.099 103.238 146.544 102.939 146.919 102.551C147.298 102.16 147.591 101.696 147.797 101.161C148.003 100.622 148.107 100.026 148.107 99.373V98.9623C148.107 98.3051 148.003 97.709 147.797 97.174C147.591 96.639 147.298 96.1756 146.919 95.7838C146.544 95.3921 146.097 95.0909 145.579 94.8802C145.065 94.6696 144.496 94.5643 143.873 94.5643H143.033H141.826H140.973V103.765H141.864H143.033ZM143.033 102.172H143.886C144.345 102.172 144.732 102.067 145.048 101.856C145.364 101.641 145.604 101.326 145.769 100.908C145.933 100.487 146.015 99.9754 146.015 99.373V98.9496C146.015 98.4947 145.969 98.0945 145.876 97.749C145.783 97.3994 145.646 97.1066 145.465 96.8707C145.284 96.6348 145.059 96.4579 144.789 96.3399C144.524 96.2219 144.218 96.163 143.873 96.163H143.033V102.172Z" fill="#768088"/>
</svg>
