<svg width="270" height="160" viewBox="0 0 270 160" fill="none" xmlns="http://www.w3.org/2000/svg">
<path d="M63.75 30.1747H68.0209C68.9896 30.1747 69.8078 30.3202 70.4753 30.6113C71.1487 30.9024 71.6597 31.3332 72.0082 31.9037C72.3626 32.4684 72.5398 33.1641 72.5398 33.9908C72.5398 34.573 72.4187 35.1056 72.1765 35.5888C71.9402 36.0662 71.5976 36.4737 71.1487 36.8114C70.7057 37.1432 70.174 37.3907 69.5538 37.5537L69.0753 37.7371H65.0614L65.0437 36.366H68.074C68.6884 36.366 69.1993 36.2613 69.6069 36.0517C70.0145 35.8363 70.3217 35.5481 70.5284 35.1871C70.7352 34.8262 70.8386 34.4274 70.8386 33.9908C70.8386 33.5018 70.7411 33.0739 70.5462 32.7071C70.3512 32.3403 70.0441 32.058 69.6246 31.86C69.2111 31.6563 68.6766 31.5544 68.0209 31.5544H65.4601V42.8893H63.75V30.1747ZM71.2905 42.8893L68.1538 37.1258L69.9348 37.117L73.1158 42.7845V42.8893H71.2905Z" fill="#768088"/>
<path d="M84.4894 41.5183V42.8893H77.6578V41.5183H84.4894ZM78.0033 30.1747V42.8893H76.2932V30.1747H78.0033ZM83.5856 35.6412V37.0123H77.6578V35.6412H83.5856ZM84.4008 30.1747V31.5544H77.6578V30.1747H84.4008Z" fill="#768088"/>
<path d="M92.1326 40.9594L95.9338 30.1747H97.7857L93.0098 42.8893H91.6896L92.1326 40.9594ZM88.5795 30.1747L92.3453 40.9594L92.8149 42.8893H91.4946L86.7276 30.1747H88.5795Z" fill="#768088"/>
<path d="M102.718 30.1747V42.8893H101.007V30.1747H102.718Z" fill="#768088"/>
<path d="M115.385 41.5183V42.8893H108.553V41.5183H115.385ZM108.899 30.1747V42.8893H107.189V30.1747H108.899ZM114.481 35.6412V37.0123H108.553V35.6412H114.481ZM115.296 30.1747V31.5544H108.553V30.1747H115.296Z" fill="#768088"/>
<path d="M122.257 39.0469L124.818 30.1747H126.058L125.341 33.624L122.585 42.8893H121.353L122.257 39.0469ZM119.608 30.1747L121.646 38.8723L122.257 42.8893H121.034L117.907 30.1747H119.608ZM129.372 38.8636L131.366 30.1747H133.076L129.957 42.8893H128.734L129.372 38.8636ZM126.245 30.1747L128.734 39.0469L129.638 42.8893H128.407L125.748 33.624L125.022 30.1747H126.245Z" fill="#768088"/>
<path d="M144.529 41.5183V42.8893H137.698V41.5183H144.529ZM138.043 30.1747V42.8893H136.333V30.1747H138.043ZM143.626 35.6412V37.0123H137.698V35.6412H143.626ZM144.441 30.1747V31.5544H137.698V30.1747H144.441Z" fill="#768088"/>
<path d="M151.499 42.8893H148.806L148.823 41.5183H151.499C152.421 41.5183 153.189 41.3291 153.803 40.9506C154.417 40.5664 154.878 40.0308 155.185 39.3439C155.498 38.6511 155.655 37.8418 155.655 36.9162V36.139C155.655 35.4113 155.566 34.7651 155.389 34.2004C155.212 33.6298 154.952 33.1495 154.609 32.7595C154.267 32.3636 153.847 32.0638 153.351 31.86C152.861 31.6563 152.297 31.5544 151.659 31.5544H148.753V30.1747H151.659C152.504 30.1747 153.274 30.3144 153.971 30.5938C154.669 30.8674 155.268 31.2662 155.77 31.7902C156.278 32.3083 156.668 32.9371 156.94 33.6764C157.212 34.4099 157.347 35.2366 157.347 36.1565V36.9162C157.347 37.836 157.212 38.6656 156.94 39.405C156.668 40.1385 156.275 40.7643 155.761 41.2825C155.253 41.8006 154.639 42.1994 153.918 42.4788C153.204 42.7525 152.397 42.8893 151.499 42.8893ZM149.718 30.1747V42.8893H148.008V30.1747H149.718Z" fill="#768088"/>
<path d="M177.073 36.1303V36.9337C177.073 37.8884 176.952 38.7442 176.71 39.501C176.468 40.2579 176.119 40.9012 175.664 41.4309C175.209 41.9607 174.663 42.3653 174.025 42.6448C173.393 42.9242 172.684 43.0639 171.898 43.0639C171.136 43.0639 170.436 42.9242 169.798 42.6448C169.166 42.3653 168.617 41.9607 168.15 41.4309C167.69 40.9012 167.332 40.2579 167.078 39.501C166.824 38.7442 166.697 37.8884 166.697 36.9337V36.1303C166.697 35.1755 166.821 34.3226 167.069 33.5716C167.323 32.8148 167.681 32.1715 168.142 31.6417C168.602 31.1061 169.149 30.6986 169.781 30.4192C170.419 30.1397 171.119 30 171.881 30C172.666 30 173.375 30.1397 174.007 30.4192C174.645 30.6986 175.192 31.1061 175.647 31.6417C176.107 32.1715 176.459 32.8148 176.701 33.5716C176.949 34.3226 177.073 35.1755 177.073 36.1303ZM175.381 36.9337V36.1128C175.381 35.356 175.301 34.6865 175.141 34.1043C174.988 33.5221 174.76 33.0331 174.459 32.6372C174.158 32.2414 173.789 31.9415 173.352 31.7378C172.92 31.534 172.43 31.4321 171.881 31.4321C171.349 31.4321 170.868 31.534 170.436 31.7378C170.011 31.9415 169.645 32.2414 169.338 32.6372C169.036 33.0331 168.803 33.5221 168.638 34.1043C168.472 34.6865 168.39 35.356 168.39 36.1128V36.9337C168.39 37.6963 168.472 38.3716 168.638 38.9596C168.803 39.5418 169.039 40.0337 169.347 40.4354C169.66 40.8313 170.029 41.1311 170.454 41.3349C170.885 41.5386 171.367 41.6405 171.898 41.6405C172.454 41.6405 172.947 41.5386 173.378 41.3349C173.809 41.1311 174.173 40.8313 174.468 40.4354C174.769 40.0337 174.997 39.5418 175.15 38.9596C175.304 38.3716 175.381 37.6963 175.381 36.9337Z" fill="#768088"/>
<path d="M190.919 30.1747V42.8893H189.2L182.705 33.0826V42.8893H180.995V30.1747H182.705L189.226 40.0075V30.1747H190.919Z" fill="#768088"/>
<path d="M98.0029 55.0547H103.997V91.9781H98.0029V55.0547ZM124.978 80.1996C124.978 85.8503 120.157 86.3008 118.723 86.3008C115.14 86.3008 114.488 82.9954 114.488 81.0015V66.8702H108.493V80.972C108.493 84.4723 109.608 87.3612 111.562 89.2872C113.289 90.9901 115.875 91.9205 118.678 91.9205C120.665 91.9205 123.479 91.3106 124.978 89.9621V91.9781H130.972V66.8702H124.978V80.1996ZM142.961 58.0086H136.967V66.8702H132.471V72.7779H136.967V91.9781H142.961V72.7779H147.457V66.8702H142.961V58.0086ZM166.335 84.4709C165.03 85.6273 163.306 86.2683 161.415 86.2683C157.246 86.2683 154.184 83.2509 154.184 79.1081C154.184 74.9653 157.149 72.0749 161.415 72.0749C163.273 72.0749 165.03 72.6849 166.368 73.8413L167.278 74.6123L171.319 70.6305L170.308 69.731C167.93 67.6146 164.772 66.4271 161.414 66.4271C153.921 66.4271 148.479 71.7559 148.479 79.0771C148.479 86.3673 154.051 91.8866 161.414 91.8866C164.835 91.8866 168.025 90.6991 170.374 88.5487L171.351 87.6492L167.246 83.6704L166.335 84.4709ZM192.715 69.059C190.989 67.3576 188.966 66.4271 186.163 66.4271C184.176 66.4271 181.925 67.0371 180.426 68.3841V55.0547H174.432V91.9781H180.426V78.1466C180.426 72.4958 184.5 72.0469 185.934 72.0469C189.517 72.0469 189.418 75.3537 189.418 77.3446V91.9781H195.413V77.3757C195.413 73.8753 194.671 70.9864 192.715 69.059Z" fill="#768088"/>
<path d="M161.223 74.8994C162.372 74.8994 163.474 75.3494 164.287 76.1504C165.1 76.9514 165.556 78.0378 165.556 79.1706C165.556 80.3034 165.1 81.3898 164.287 82.1908C163.474 82.9918 162.372 83.4418 161.223 83.4418C160.073 83.4418 158.971 82.9918 158.158 82.1908C157.345 81.3898 156.889 80.3034 156.889 79.1706C156.889 78.0378 157.345 76.9514 158.158 76.1504C158.971 75.3494 160.073 74.8994 161.223 74.8994Z" fill="#768088"/>
<path d="M89.6167 82.7049C87.3374 85.0162 84.2413 86.2686 80.9835 86.2686C74.3059 86.2686 69.4505 81.0995 69.4505 74.0045C69.4505 66.8771 74.3059 61.7079 80.9835 61.7079C84.2099 61.7079 87.2714 62.9589 89.5852 65.2392L90.4963 66.1386L94.5035 62.1894L93.6238 61.29C90.3015 57.9182 85.8058 56.0898 80.9835 56.0898C71.1454 56.0898 63.75 63.7948 63.75 74.0356C63.75 84.2453 71.1784 91.9192 80.9835 91.9192C85.8388 91.9192 90.3345 90.0583 93.6568 86.6866L94.5365 85.7872L90.5623 81.7745L89.6167 82.7049Z" fill="#768088"/>
<path d="M77.3914 125.571L70.2442 129.829C70.0509 129.947 69.8264 130.006 69.5991 129.999C69.3719 129.991 69.152 129.917 68.9675 129.786C68.7829 129.655 68.6419 129.473 68.5624 129.263C68.4828 129.053 68.4683 128.824 68.5206 128.606L70.4281 120.611L64.1312 115.221C63.9646 115.073 63.8454 114.881 63.7882 114.668C63.731 114.455 63.7382 114.229 63.809 114.02C63.8798 113.811 64.011 113.627 64.1867 113.49C64.3623 113.353 64.5746 113.27 64.7976 113.25L73.0709 112.548L76.3343 105.006C76.4226 104.802 76.5699 104.628 76.7578 104.505C76.9458 104.383 77.1661 104.317 77.3914 104.317C77.6167 104.317 77.8371 104.383 78.025 104.505C78.213 104.628 78.3603 104.802 78.4486 105.006L81.6889 112.548L89.9852 113.25C90.2121 113.263 90.4296 113.344 90.6093 113.481C90.789 113.618 90.9224 113.805 90.992 114.018C91.0616 114.231 91.0642 114.46 90.9994 114.675C90.9345 114.89 90.8053 115.08 90.6287 115.221L84.4237 120.611L86.3082 128.606C86.3565 128.821 86.3401 129.045 86.2612 129.251C86.1822 129.457 86.0441 129.636 85.8636 129.766C85.6832 129.896 85.4683 129.971 85.2452 129.982C85.0221 129.993 84.8006 129.94 84.6076 129.829L77.3914 125.571Z" fill="#768088"/>
<path d="M106.193 125.571L99.046 129.829C98.8527 129.947 98.6282 130.006 98.4009 129.999C98.1736 129.991 97.9538 129.917 97.7692 129.786C97.5847 129.655 97.4437 129.473 97.3641 129.263C97.2846 129.053 97.2701 128.824 97.3224 128.606L99.2298 120.611L92.9329 115.221C92.7664 115.073 92.6472 114.881 92.59 114.668C92.5327 114.455 92.5399 114.229 92.6107 114.02C92.6815 113.811 92.8128 113.627 92.9884 113.49C93.1641 113.353 93.3764 113.27 93.5994 113.25L101.873 112.548L105.136 105.006C105.224 104.802 105.372 104.628 105.56 104.505C105.748 104.383 105.968 104.317 106.193 104.317C106.418 104.317 106.639 104.383 106.827 104.505C107.015 104.628 107.162 104.802 107.25 105.006L110.491 112.548L118.787 113.25C119.014 113.263 119.231 113.344 119.411 113.481C119.591 113.618 119.724 113.805 119.794 114.018C119.863 114.231 119.866 114.46 119.801 114.675C119.736 114.89 119.607 115.08 119.43 115.221L113.225 120.611L115.11 128.606C115.158 128.821 115.142 129.045 115.063 129.251C114.984 129.457 114.846 129.636 114.665 129.766C114.485 129.896 114.27 129.971 114.047 129.982C113.824 129.993 113.602 129.94 113.409 129.829L106.193 125.571Z" fill="#768088"/>
<path d="M135.005 125.571L127.857 129.829C127.664 129.947 127.44 130.006 127.212 129.999C126.985 129.991 126.765 129.917 126.581 129.786C126.396 129.655 126.255 129.473 126.176 129.263C126.096 129.053 126.082 128.824 126.134 128.606L128.041 120.611L121.744 115.221C121.578 115.073 121.459 114.881 121.401 114.668C121.344 114.455 121.351 114.229 121.422 114.02C121.493 113.811 121.624 113.627 121.8 113.49C121.976 113.353 122.188 113.27 122.411 113.25L130.684 112.548L133.948 105.006C134.036 104.802 134.183 104.628 134.371 104.505C134.559 104.383 134.779 104.317 135.005 104.317C135.23 104.317 135.45 104.383 135.638 104.505C135.826 104.628 135.974 104.802 136.062 105.006L139.302 112.548L147.599 113.25C147.825 113.263 148.043 113.344 148.223 113.481C148.402 113.618 148.536 113.805 148.605 114.018C148.675 114.231 148.677 114.46 148.613 114.675C148.548 114.89 148.419 115.08 148.242 115.221L142.037 120.611L143.921 128.606C143.97 128.821 143.953 129.045 143.874 129.251C143.795 129.457 143.657 129.636 143.477 129.766C143.296 129.896 143.082 129.971 142.858 129.982C142.635 129.993 142.414 129.94 142.221 129.829L135.005 125.571Z" fill="#768088"/>
<path d="M163.794 125.571L156.647 129.829C156.453 129.947 156.229 130.006 156.001 129.999C155.774 129.991 155.554 129.917 155.37 129.786C155.185 129.655 155.044 129.473 154.965 129.263C154.885 129.053 154.871 128.824 154.923 128.606L156.83 120.611L150.534 115.221C150.367 115.073 150.248 114.881 150.191 114.668C150.133 114.455 150.141 114.229 150.211 114.02C150.282 113.811 150.413 113.627 150.589 113.49C150.765 113.353 150.977 113.27 151.2 113.25L159.473 112.548L162.737 105.006C162.825 104.802 162.972 104.628 163.16 104.505C163.348 104.383 163.568 104.317 163.794 104.317C164.019 104.317 164.239 104.383 164.427 104.505C164.615 104.628 164.763 104.802 164.851 105.006L168.091 112.548L176.388 113.25C176.614 113.263 176.832 113.344 177.012 113.481C177.191 113.618 177.325 113.805 177.394 114.018C177.464 114.231 177.467 114.46 177.402 114.675C177.337 114.89 177.208 115.08 177.031 115.221L170.826 120.611L172.711 128.606C172.759 128.821 172.742 129.045 172.664 129.251C172.585 129.457 172.446 129.636 172.266 129.766C172.086 129.896 171.871 129.971 171.648 129.982C171.424 129.993 171.203 129.94 171.01 129.829L163.794 125.571Z" fill="#768088"/>
<path d="M192.596 125.571L185.448 129.829C185.255 129.947 185.031 130.006 184.803 129.999C184.576 129.991 184.356 129.917 184.172 129.786C183.987 129.655 183.846 129.473 183.766 129.263C183.687 129.053 183.672 128.824 183.725 128.606L185.632 120.611L179.335 115.221C179.169 115.073 179.05 114.881 178.992 114.668C178.935 114.455 178.942 114.229 179.013 114.02C179.084 113.811 179.215 113.627 179.391 113.49C179.566 113.353 179.779 113.27 180.002 113.25L188.275 112.548L191.538 105.006C191.627 104.802 191.774 104.628 191.962 104.505C192.15 104.383 192.37 104.317 192.596 104.317C192.821 104.317 193.041 104.383 193.229 104.505C193.417 104.628 193.564 104.802 193.653 105.006L196.893 112.548L205.189 113.25C205.416 113.263 205.634 113.344 205.813 113.481C205.993 113.618 206.127 113.805 206.196 114.018C206.266 114.231 206.268 114.46 206.203 114.675C206.139 114.89 206.009 115.08 205.833 115.221L199.628 120.611L201.512 128.606C201.561 128.821 201.544 129.045 201.465 129.251C201.386 129.457 201.248 129.636 201.068 129.766C200.887 129.896 200.672 129.971 200.449 129.982C200.226 129.993 200.005 129.94 199.812 129.829L192.596 125.571Z" fill="#768088"/>
</svg>
