<svg width="270" height="160" viewBox="0 0 270 160" fill="none" xmlns="http://www.w3.org/2000/svg">
<g clip-path="url(#clip0_16146_19229)">
<mask id="mask0_16146_19229" style="mask-type:luminance" maskUnits="userSpaceOnUse" x="65" y="30" width="140" height="100">
<path d="M205 30H65V130H205V30Z" fill="white"/>
</mask>
<g mask="url(#mask0_16146_19229)">
<path fill-rule="evenodd" clip-rule="evenodd" d="M65 80L81.8307 30H205L188.034 80H205L188.034 130H65L81.8307 80H65ZM123.803 52.9744L127.263 64.9979L130.818 52.9744H135.671L127.908 75.9823H123.008L125.572 68.4198H124.047L118.982 52.9744H123.803ZM148.387 52.9744L144.643 63.4198L140.924 52.9744H136.134L142.182 68.0916H147.113L153.153 52.9744H148.387ZM160.506 52.5838C162.229 52.5838 163.801 53.1307 165.013 53.9823V52.9823H169.401V68.0994H165.013V67.076C163.801 67.951 162.229 68.4901 160.49 68.4901C156.204 68.4901 152.642 65.0682 152.642 60.5448C152.642 56.0213 156.165 52.5838 160.506 52.5838ZM161.285 64.5291C162.755 64.5291 164.014 63.7869 164.73 62.6854V58.4119C164.014 57.2948 162.74 56.5526 161.285 56.5526C159.146 56.5526 157.243 58.3182 157.243 60.5291C157.243 62.7401 159.114 64.5291 161.285 64.5291ZM111.667 52.5838C109.897 52.5838 108.325 53.2244 107.035 54.2479V44.7401H101.262L99.7756 49.1463H102.599V68.0916H107.255V58.5213C107.916 57.5369 109.111 56.5994 110.747 56.5994C112.737 56.5994 114.192 57.7479 114.192 60.7948V68.0994H118.824V60.7948C118.824 54.8885 115.3 52.5838 111.675 52.5838H111.667ZM157.51 44.7323H162.615L161.12 49.1463H156.024L157.51 44.7323ZM162.803 49.1463H167.907L169.402 44.7323H164.298L162.803 49.1463ZM110.789 86.8125V98.3036H115.942C118.333 98.3036 119.867 97.1464 119.867 94.9447C119.867 93.225 118.834 92.3411 117.622 92.1322V92.1C118.575 91.7786 119.415 91.1197 119.415 89.7054C119.415 87.8732 118.026 86.8125 115.651 86.8125H110.789ZM115.603 91.5857H112.566V88.3393H115.732C116.944 88.3393 117.557 88.95 117.557 89.9625C117.557 90.9911 117.057 91.5857 115.603 91.5857ZM115.813 96.7768H112.566V92.9839H116.055C117.267 92.9839 118.01 93.675 118.01 94.8804C118.01 95.9572 117.525 96.7768 115.813 96.7768ZM122.683 90.1072H121.1V98.3036H122.683V94.0607C122.683 92.5018 123.717 91.425 125.154 91.425C125.332 91.425 125.477 91.4411 125.687 91.4732V89.9625C125.445 89.9304 125.219 89.9143 124.928 89.9143C123.813 89.9143 123.135 90.6375 122.715 91.6661H122.683V90.1072ZM125.964 94.2054C125.964 96.7768 127.515 98.5447 130.083 98.5447C132.652 98.5447 134.203 96.7607 134.203 94.1893C134.203 91.6339 132.652 89.85 130.083 89.85C127.515 89.85 125.964 91.65 125.964 94.2054ZM132.555 94.2054C132.555 95.909 131.763 97.2429 130.083 97.2429C128.387 97.2429 127.612 95.909 127.612 94.2054C127.612 92.4857 128.387 91.1679 130.083 91.1679C131.763 91.1679 132.555 92.4857 132.555 94.2054ZM137.019 90.1072H135.436V98.3036H137.019V93.2732C137.019 92.0357 137.891 91.2161 139.248 91.2161C140.427 91.2161 140.912 91.9554 140.912 93.0482V98.3036H142.511V92.6143C142.511 90.7339 141.283 89.8661 139.765 89.8661C138.343 89.8661 137.487 90.5089 137.051 91.1357H137.019V90.1072ZM148.167 91.4411L143.66 97.1304V98.3036H150.493V97.0018H145.695V96.9697L150.315 91.1197V90.1072H143.951V91.4089H148.167V91.4411ZM150.962 94.1893C150.962 96.6964 152.416 98.5447 155.033 98.5447C157.198 98.5447 158.409 97.3554 158.829 95.7804H157.23C157.068 96.3268 156.519 97.2589 155.065 97.2589C153.434 97.2589 152.626 96.0054 152.594 94.6232H158.926C158.942 94.4947 158.942 94.2536 158.942 94.0286C158.942 91.4893 157.537 89.85 155.033 89.85C152.513 89.85 150.962 91.6179 150.962 94.1893ZM152.594 93.3857C152.691 92.0357 153.66 91.1357 154.985 91.1357C156.39 91.1357 157.278 92.1 157.278 93.3857H152.594ZM109.64 102.884V114.375H111.417V109.714H114.454C116.635 109.714 118.25 108.718 118.25 106.307C118.25 103.896 116.635 102.884 114.454 102.884H109.64ZM114.373 108.188H111.417V104.411H114.373C115.714 104.411 116.393 105.005 116.393 106.307C116.393 107.593 115.714 108.188 114.373 108.188ZM124.692 107.175H124.659C124.223 106.532 123.415 105.938 122.123 105.938C120.023 105.938 118.44 107.577 118.44 110.277C118.44 112.977 120.023 114.6 122.123 114.6C123.415 114.6 124.223 113.989 124.659 113.411H124.692V114.375H126.291V106.179H124.692V107.175ZM124.692 110.277C124.692 112.125 123.803 113.298 122.382 113.298C120.831 113.298 120.088 111.884 120.088 110.277C120.088 108.67 120.831 107.255 122.382 107.255C123.803 107.255 124.692 108.413 124.692 110.277ZM129.396 106.179H127.813V114.375H129.396V110.132C129.396 108.573 130.43 107.496 131.867 107.496C132.045 107.496 132.191 107.513 132.401 107.545V106.034C132.158 106.002 131.932 105.986 131.641 105.986C130.527 105.986 129.848 106.709 129.428 107.738H129.396V106.179ZM134.263 106.179H133.067V107.48H134.263V112.061C134.263 113.957 135.087 114.471 136.427 114.471C136.783 114.471 137.025 114.455 137.445 114.375V113.105C137.154 113.154 137.025 113.17 136.767 113.17C136.088 113.17 135.846 112.977 135.846 112.109V107.48H137.429V106.179H135.846V103.543H134.263V106.179ZM140.116 106.179H138.533V114.375H140.116V109.345C140.116 108.107 140.988 107.288 142.345 107.288C143.524 107.288 144.009 108.027 144.009 109.12V114.375H145.608V108.686C145.608 106.805 144.38 105.938 142.862 105.938C141.44 105.938 140.584 106.58 140.148 107.207H140.116V106.179ZM146.611 110.261C146.611 112.768 148.065 114.616 150.682 114.616C152.847 114.616 154.058 113.427 154.478 111.852H152.879C152.718 112.398 152.168 113.33 150.715 113.33C149.083 113.33 148.275 112.077 148.243 110.695H154.575C154.591 110.566 154.591 110.325 154.591 110.1C154.591 107.561 153.186 105.921 150.682 105.921C148.162 105.921 146.611 107.689 146.611 110.261ZM148.243 109.457C148.34 108.107 149.309 107.207 150.634 107.207C152.039 107.207 152.928 108.171 152.928 109.457H148.243ZM157.252 106.179H155.669V114.375H157.252V110.132C157.252 108.573 158.286 107.496 159.723 107.496C159.901 107.496 160.047 107.513 160.257 107.545V106.034C160.014 106.002 159.788 105.986 159.497 105.986C158.383 105.986 157.704 106.709 157.284 107.738H157.252V106.179Z" fill="#768088"/>
</g>
</g>
<defs>
<clipPath id="clip0_16146_19229">
<rect width="140" height="100" fill="white" transform="translate(65 30)"/>
</clipPath>
</defs>
</svg>
