<svg width="270" height="160" viewBox="0 0 270 160" fill="none" xmlns="http://www.w3.org/2000/svg">
<g clip-path="url(#clip0_16146_19202)">
<mask id="mask0_16146_19202" style="mask-type:luminance" maskUnits="userSpaceOnUse" x="38" y="30" width="194" height="54">
<path d="M38.333 30H231.666V83.9877H38.333V30Z" fill="white"/>
</mask>
<g mask="url(#mask0_16146_19202)">
<path d="M104.542 59.953C102.898 59.0701 102.057 58.3252 102.057 57.3015C102.057 55.999 103.232 55.1625 105.066 55.1625C107.2 55.1625 109.106 56.0454 109.106 56.0454L110.599 51.4872C110.599 51.4872 109.218 50.417 105.148 50.417C99.4882 50.417 95.5621 53.6262 95.5621 58.1393C95.5621 60.6979 97.3954 62.6497 99.8417 64.0465C101.814 65.1632 102.52 65.96 102.52 67.1177C102.52 68.3273 101.533 69.3045 99.7008 69.3045C96.9702 69.3045 94.3914 67.909 94.3914 67.909L92.79 72.4672C92.79 72.4672 95.1728 74.0486 99.1804 74.0486C105.007 74.0486 109.189 71.2112 109.189 66.094C109.194 63.3494 107.079 61.395 104.542 59.953Z" fill="#768088"/>
<path d="M127.754 50.3651C124.888 50.3651 122.633 51.7141 120.895 53.7602L120.799 53.7151L123.284 40.8291H116.811L110.515 73.6318H117.003L119.163 62.4242C120.01 58.1872 122.219 55.5903 124.285 55.5903C125.742 55.5903 126.306 56.5676 126.306 57.963C126.306 58.9157 126.211 59.8662 126.023 60.8005L123.576 73.6305H130.064L132.6 60.3727C132.881 58.993 133.038 57.5917 133.071 56.1849C133.064 52.552 131.136 50.3651 127.754 50.3651Z" fill="#768088"/>
<path d="M147.724 50.3643C139.924 50.3643 134.758 57.3471 134.758 65.1159C134.758 70.0937 137.859 74.0943 143.686 74.0943C151.345 74.0943 156.512 67.3028 156.512 59.3481C156.509 54.738 153.784 50.3643 147.724 50.3643ZM144.529 69.1575C142.321 69.1575 141.38 67.2973 141.38 64.9711C141.38 61.2958 143.313 55.2956 146.831 55.2956C149.133 55.2956 149.884 57.2487 149.884 59.1568C149.884 63.1163 147.958 69.163 144.529 69.163V69.1575Z" fill="#768088"/>
<path d="M173.095 50.3643C168.718 50.3643 166.233 54.1913 166.233 54.1913H166.139L166.515 50.7484H160.785C160.51 53.0719 159.987 56.6105 159.47 59.262L154.96 82.746H161.448L163.233 73.2565H163.371C163.371 73.2565 164.702 74.0943 167.177 74.0943C174.79 74.0943 179.769 66.372 179.769 58.5568C179.762 54.2309 177.842 50.3643 173.095 50.3643ZM166.895 69.2559C165.919 69.2701 164.969 68.9407 164.216 68.3265L165.297 62.3249C166.048 58.3244 168.163 55.6728 170.417 55.6728C172.392 55.6728 173.002 57.4866 173.002 59.2087C172.998 63.3487 170.513 69.2559 166.895 69.2559Z" fill="#768088"/>
<path d="M189.024 41.1602C188.532 41.1586 188.045 41.2543 187.591 41.4413C187.137 41.6285 186.725 41.9033 186.379 42.2498C186.034 42.5964 185.762 43.0077 185.578 43.4596C185.395 43.9115 185.304 44.3951 185.313 44.8819C185.313 46.7954 186.534 48.0911 188.367 48.0911H188.46C190.482 48.0911 192.22 46.7421 192.266 44.3694C192.266 42.5092 190.998 41.1602 189.024 41.1602Z" fill="#768088"/>
<path d="M179.957 73.6305H186.441L190.857 50.8818H184.326L179.957 73.6305Z" fill="#768088"/>
<path d="M207.348 50.8349H202.838L203.073 49.7661C203.448 47.5793 204.764 45.6248 206.926 45.6248C207.629 45.6259 208.328 45.7362 208.996 45.9514L210.261 40.934C210.261 40.934 209.133 40.375 206.736 40.375C204.436 40.375 202.132 41.027 200.395 42.5154C198.186 44.3756 197.152 47.0736 196.635 49.773L196.448 50.8418H193.441L192.501 55.6802H195.508L192.077 73.6369H198.566L201.988 55.6733H206.451L207.348 50.8349Z" fill="#768088"/>
<path d="M222.949 50.8818C222.949 50.8818 218.895 60.996 217.075 66.5123H216.982C216.857 64.7355 215.384 50.8818 215.384 50.8818H208.571L212.471 71.769C212.565 72.2336 212.518 72.5138 212.333 72.8391C211.58 74.281 210.312 75.6766 208.808 76.7002C207.587 77.5846 206.224 78.1422 205.145 78.514L206.929 83.9578C208.245 83.6845 210.97 82.6075 213.28 80.4685C216.24 77.724 218.965 73.4897 221.784 67.7219L229.725 50.8818H222.949Z" fill="#768088"/>
</g>
<path d="M95.3418 124.959L99.882 100.994C100.451 97.9867 100.876 95.3188 101.16 93.2549H103.103L102.394 97.8036H102.487C104.525 94.7556 107.368 92.7861 110.399 92.7861C114.71 92.7861 116.32 96.4436 116.32 100.103C116.32 107.7 111.061 116.23 103.814 116.23C101.587 116.23 100.118 115.715 99.2667 115.246H99.1713L97.3768 124.951L95.3418 124.959ZM99.6044 113.187C100.647 113.983 102.163 114.452 104.01 114.452C110.026 114.452 114.196 106.011 114.196 100.238C114.196 97.5644 113.153 94.6094 109.79 94.6094C106.568 94.6094 102.352 98.6428 101.074 105.444L99.6044 113.187Z" fill="#768088"/>
<path d="M132 115.765C131.952 114.405 132.237 112.295 132.568 109.716H132.477C129.871 114.687 126.981 116.234 123.996 116.234C120.545 116.234 118.454 113.42 118.454 109.386C118.454 101.742 123.996 92.7842 132.811 92.7842C134.422 92.7842 136.222 93.0657 137.405 93.4403L134.99 105.588C134.185 109.762 133.9 113.379 133.996 115.765H132ZM135.038 94.9409C134.516 94.7537 133.711 94.613 132.289 94.613C125.752 94.613 120.637 101.836 120.589 108.918C120.541 111.826 121.394 114.452 124.473 114.452C128.168 114.452 132.342 108.965 133.427 103.148L135.038 94.9409Z" fill="#768088"/>
<path d="M139.342 115.765L142.233 100.616C142.8 97.7552 143.133 95.2225 143.322 93.253H145.216C145.027 94.7072 144.838 96.208 144.553 98.131H144.649C146.069 95.1241 148.296 92.7842 151.137 92.7842C151.424 92.7869 151.71 92.818 151.99 92.8771L151.61 94.9888C151.347 94.9281 151.076 94.8965 150.805 94.8945C147.821 94.8945 144.505 99.3502 143.557 104.325L141.425 115.769L139.342 115.765Z" fill="#768088"/>
<path d="M160.612 88.2822L159.618 93.2546H164.97L164.592 94.9903H159.238L156.727 108.404C156.444 109.907 156.254 111.077 156.254 112.297C156.254 113.61 156.869 114.407 158.291 114.407C159.049 114.407 159.523 114.36 159.948 114.22L160.086 115.86C159.364 116.074 158.613 116.184 157.859 116.188C155.159 116.188 154.117 114.411 154.117 112.53C154.117 111.31 154.255 110.137 154.638 108.403L157.196 94.989H153.928L154.259 93.2531H157.572L158.33 89.2198L160.612 88.2822Z" fill="#768088"/>
<path d="M164.448 115.765L167.486 99.8655C167.945 97.6803 168.293 95.4732 168.528 93.253H170.422L169.802 97.8495H169.898C171.887 94.5692 174.729 92.7842 177.807 92.7842C180.034 92.7842 182.877 94.1906 182.877 98.459C182.877 99.5839 182.688 100.71 182.45 101.929L179.845 115.765H177.807L180.461 101.929C180.672 100.848 180.782 99.7501 180.792 98.649C180.792 96.3036 179.845 94.6157 177.05 94.6157C174.013 94.6157 169.755 98.3675 168.767 103.809L166.54 115.768L164.448 115.765Z" fill="#768088"/>
<path d="M199.551 114.5C198.367 115.25 196.187 116.187 193.346 116.187C188.039 116.187 186.192 112.06 186.192 107.745C186.192 101.273 190.739 92.7842 197.277 92.7842C201.02 92.7842 202.583 95.2225 202.583 97.7045C202.583 103.426 195.956 105.021 188.513 104.974C188.277 106.006 188.237 108.961 188.703 110.555C189.508 113.136 191.261 114.355 193.673 114.355C196.183 114.355 197.889 113.464 198.931 112.851L199.551 114.5ZM196.898 94.613C193.393 94.613 190.219 98.3647 188.846 103.196C194.767 103.243 200.451 102.257 200.451 97.8016C200.451 95.6913 199.029 94.613 196.898 94.613Z" fill="#768088"/>
<path d="M203.72 115.765L206.61 100.616C207.179 97.7552 207.51 95.2225 207.7 93.253H209.595C209.404 94.7072 209.215 96.208 208.931 98.131H209.026C210.447 95.1241 212.674 92.7842 215.514 92.7842C215.802 92.7869 216.087 92.818 216.368 92.8771L215.988 94.9888C215.724 94.9281 215.454 94.8965 215.183 94.8945C212.199 94.8945 208.883 99.3502 207.936 104.325L205.803 115.769L203.72 115.765Z" fill="#768088"/>
<path d="M215.421 113.139C216.618 113.917 218.016 114.34 219.447 114.359C222.432 114.359 224.417 112.248 224.417 109.711C224.417 107.459 223.47 106.099 221.338 104.739C219.112 103.285 217.879 101.269 217.879 99.2051C217.879 95.687 220.722 92.7812 224.701 92.7812C226.264 92.7812 227.829 93.2965 228.491 93.8132L227.732 95.5503C227.021 95.128 225.789 94.6127 224.463 94.6127C221.716 94.6127 219.916 96.4893 219.916 98.8333C219.916 100.945 221.1 102.114 222.995 103.344C225.173 104.798 226.5 106.86 226.5 109.113C226.5 113.661 223.137 116.194 219.253 116.194C217.215 116.194 215.415 115.444 214.657 114.834L215.421 113.139Z" fill="#768088"/>
<path fill-rule="evenodd" clip-rule="evenodd" d="M79.337 41.083C79.4216 41.1613 79.4773 41.2654 79.4951 41.3787C79.5365 41.6453 85.3194 80.3906 85.3194 80.3906L71.132 83.8814L38.3975 78.2776C38.3975 78.2776 42.3029 48.3739 42.4506 47.3201C42.6466 45.9273 42.6936 45.8809 44.1859 45.4175L49.2578 43.8622C49.5795 41.6302 50.6839 38.7326 52.15 36.4364C54.2305 33.1562 56.7941 31.3179 59.3743 31.2523C60.705 31.214 61.8205 31.6609 62.6875 32.5808C62.751 32.6505 62.8103 32.7174 62.8683 32.7872C62.8808 32.786 62.8934 32.7849 62.9059 32.7838C63.0314 32.7725 63.1569 32.7612 63.2824 32.7612H63.2893C65.2828 32.7639 66.9325 33.8915 68.0604 36.0196C68.3703 36.6127 68.6248 37.2326 68.821 37.8716L70.4114 37.3837C70.6488 37.3153 71.2604 37.2264 71.5724 37.5299C71.8844 37.8333 75.0499 40.8744 75.0499 40.8744C75.0499 40.8744 78.8352 40.9318 79.0285 40.9468C79.1437 40.9568 79.2524 41.0047 79.337 41.083ZM64.6409 39.1495L67.181 38.3718V38.3677C66.7752 37.0611 65.8129 34.8729 63.8581 34.5093C64.4669 36.062 64.6215 37.8592 64.6409 39.1495ZM57.4636 41.3459L62.9291 39.6743V39.6702C62.9456 38.2625 62.791 36.1768 62.08 34.7061C61.3733 35.018 60.7411 35.4739 60.2246 36.0442C58.9932 37.3495 57.9924 39.3436 57.4636 41.3459ZM60.9687 33.3434C60.5069 33.0537 59.9657 32.9133 59.4198 32.9416C55.444 33.055 51.9761 39.2028 51.0981 43.3004L55.5779 41.9241C56.0776 39.3217 57.3311 36.6237 58.967 34.8865C59.5405 34.263 60.2174 33.7411 60.9687 33.3434ZM61.6218 54.2764L63.2701 48.1737C63.2701 48.1737 61.8481 47.4712 59.0719 47.642C51.8658 48.0931 48.6009 53.0845 48.9143 58.0049C49.1237 61.2926 51.0809 62.6687 52.7956 63.8742C54.1318 64.8137 55.3208 65.6496 55.4205 67.2061C55.4758 68.0658 54.9346 69.2822 53.4243 69.3765C51.112 69.5241 48.2254 67.3783 48.2254 67.3783L47.121 72.0253C47.121 72.0253 49.991 75.0705 55.2052 74.7452C59.551 74.4718 62.5674 71.0275 62.2458 65.9978C61.9995 62.1319 59.2505 60.3871 57.0768 59.0074C55.6555 58.1053 54.4801 57.3594 54.4114 56.2786C54.3755 55.7785 54.4114 53.7829 57.6045 53.5834C58.9788 53.5185 60.3506 53.7551 61.6218 54.2764Z" fill="#768088"/>
</g>
<defs>
<clipPath id="clip0_16146_19202">
<rect width="193.333" height="100" fill="white" transform="translate(38.333 30)"/>
</clipPath>
</defs>
</svg>
